<?xml version="1.0" encoding="utf-8"?>
<!-- Generator: Adobe Illustrator 24.2.1, SVG Export Plug-In . SVG Version: 6.00 Build 0)  -->
<svg version="1.1" id="Layer_1" xmlns="http://www.w3.org/2000/svg" xmlns:xlink="http://www.w3.org/1999/xlink" x="0px" y="0px"
	 viewBox="0 0 60 60" style="enable-background:new 0 0 60 60;" xml:space="preserve">
<style type="text/css">
	.st0{fill:#988574;}
	.st1{fill:#917266;}
	.st2{fill:#83655C;}
	.st3{fill:#897666;}
	.st4{fill:#775146;}
	.st5{fill:#FDB026;}
	.st6{fill:#FEB026;}
	.st7{fill:#FDE36F;}
	.st8{fill:#FCE36F;}
	.st9{fill:#FD901E;}
	.st10{fill:#84665D;}
	.st11{fill:#FEC007;}
</style>
<g>
	<g>
		<path class="st0" d="M0.7,13.1c0.5-1.2,1.4-1.7,2.7-1.6c4.7,0,9.4,0,14.1,0c0.2,0,0.4,0,0.6,0c1.1,0,2.2,0,3.3,0
			c5.7,0,11.4,0,17,0c1.1,0,2.2,0,3.3,0c2.8,0,5.6,0,8.4,0c1.2,0,2.4,0,3.6,0c0,2.8,0,5.5,0,8.3c0,2.5,0,5.1,0,7.6
			c0,1.2-0.8,2-2,2.2c-0.9,0.1-1.9,0-2.8,0.1c-0.2-0.5-0.5-0.6-1-0.6c-0.4,0-0.7,0-1.1,0c0-1.6,0-3.2,0-4.8c0-0.6-0.2-0.8-0.8-0.8
			c-0.5,0-1,0-1.5,0c-0.6,0-1.3,0.1-1.9,0c-0.5,0-0.7,0.2-0.7,0.7c0,1.6,0,3.2,0,4.8c-0.4,0-0.8,0-1.1,0c-0.5,0-0.8,0.1-0.9,0.6
			c-6.7,0-13.4,0-20.1,0c-0.2-0.5-0.5-0.6-1-0.6c-0.4,0-0.7,0-1.1,0c0-1.6,0-3.2,0-4.8c0-0.4-0.1-0.7-0.5-0.7
			c-0.6,0-1.2-0.1-1.8,0.1c-0.5,0-1.1,0-1.6,0c-1,0-1,0-1,1c0,1.5,0,3,0,4.5c-0.4,0-0.8,0-1.1,0c-0.4,0-0.7,0.1-0.8,0.6
			c-1.3,0-2.6,0.1-3.9-0.1C4,28.9,1.9,27.1,1,24.1c0-0.2,0-0.4-0.3-0.4C0.7,20.1,0.7,16.6,0.7,13.1z"/>
		<path class="st1" d="M0.7,48.9c0-7.6,0-15.2,0-22.7c0.3,0.1,0.3,0.3,0.3,0.5c0.9,2.7,2.7,4.4,5.5,5.1C8,32.1,9.5,32,11,32
			c0,0.4,0,0.9,0,1.3c0,0.6,0.3,0.8,0.8,0.8c0.4,0,0.8,0,1.2,0c0,1,0,1.9,0,2.9c0,1,0.4,1.8,1.3,2.3c0.7,0.5,1.5,0.4,2.2,0.1
			c0.8-0.4,1.3-1,1.4-1.9c0.1-1.1,0-2.2,0-3.3c0.4,0,0.8,0,1.2,0c0.6,0,0.8-0.3,0.8-0.9c0-0.4,0-0.9,0-1.3c6.7,0,13.4,0,20.1,0
			c0,0.4,0,0.8,0,1.2c0,0.6,0.3,0.9,0.9,0.9c0.4,0,0.8,0,1.1,0c0,1,0,2,0,3.1c0,1,0.5,1.8,1.5,2.2c1.3,0.7,3.4-0.2,3.4-2.2
			c0-1,0-2.1,0-3.1c0.3,0,0.7,0,1,0c0.7,0,1-0.3,1-1c0-0.4,0-0.8,0-1.2c1.6,0,3.2,0.1,4.8-0.3c0,5,0,9.9,0,14.9c0,1.3-1,2.4-2.4,2.4
			C34.6,48.9,17.7,48.9,0.7,48.9z"/>
		<path class="st2" d="M0.7,48.9c16.9,0,33.8,0,50.7,0c1.4,0,2.4-1.1,2.4-2.4c0-5,0-9.9,0-14.9c2.5-0.7,4.1-2.4,5-4.8
			c0.1-0.2,0-0.5,0.3-0.6c0,3,0,5.9,0,8.9c0,4.5,0,9,0,13.5c0,1.5-0.8,2.3-2.3,2.4c-0.2,0-0.4,0-0.6,0c-17.5,0-35,0-52.5,0
			c-1.3,0-2.5-0.3-3.1-1.6C0.7,49.4,0.7,49.2,0.7,48.9z"/>
		<path class="st3" d="M11,32c-1.5,0-3,0.1-4.4-0.2c-2.7-0.7-4.6-2.4-5.5-5.1c-0.1-0.2,0-0.5-0.3-0.5c0-0.8,0-1.7,0-2.5
			C1,23.7,1,23.9,1,24.1c0.9,3,3,4.9,6.1,5.4c1.3,0.2,2.6,0.1,3.9,0.1C11,30.4,11,31.2,11,32z"/>
		<path class="st3" d="M59.2,26.3c-0.3,0.1-0.3,0.4-0.3,0.6c-0.9,2.4-2.5,4.1-5,4.8c-1.6,0.5-3.2,0.3-4.8,0.3c0-0.8,0-1.6,0-2.4
			c0.9-0.1,1.9,0,2.8-0.1c1.2-0.2,2-0.9,2-2.2c0-2.5,0-5.1,0-7.6c0-2.8,0-5.5,0-8.3c1.2-0.1,2.5-0.1,3.7,0c0.9,0.1,1.6,1,1.6,1.9
			c0,4.1,0,8.3,0,12.4c0,0,0,0,0,0c0,0,0,0.1,0,0.1C59.2,26,59.2,26.2,59.2,26.3z"/>
		<path class="st1" d="M23.7,2.8c0-0.7,0.1-0.9,0.8-0.9c3.7,0,7.3,0,11,0c0.7,0,0.8,0.2,0.8,0.9c0,0.5,0,0.9,0,1.4
			c-0.3,0.2-0.6,0.2-1,0.2c-3.5,0-7.1,0-10.6,0c-0.4,0-0.7,0-1-0.2C23.7,3.8,23.7,3.3,23.7,2.8z"/>
		<path class="st4" d="M23.7,2.8c0,0.5,0,0.9,0,1.4c-0.2,0.6,0,1.2-0.1,1.8c-0.5,0-0.9,0-1.4,0c-0.5,0-0.8,0.3-0.8,0.8
			c0,1.5,0,3.1,0,4.6c-1.1,0-2.2,0-3.3,0c0-1.3,0.1-2.5,0-3.8c-0.2-3,1.7-5,4.7-4.8C23.2,2.9,23.5,2.9,23.7,2.8z"/>
		<path class="st4" d="M36.3,4.3c0-0.5,0-0.9,0-1.4c0.5,0,1,0,1.5,0c2.3,0,3.9,1.7,4,4c0,1.5,0,3.1,0,4.6c-1.1,0-2.2,0-3.3,0
			c0-1.5,0-3.1,0-4.6c0-0.5-0.3-0.8-0.8-0.8c-0.5,0-0.9,0-1.4,0C36.3,5.5,36.5,4.9,36.3,4.3z"/>
		<path class="st2" d="M59.2,25.8C59.2,25.8,59.2,25.8,59.2,25.8c0-0.1,0-0.1,0-0.1C59.2,25.8,59.3,25.8,59.2,25.8z"/>
		<path class="st5" d="M14.3,39.3c-1-0.4-1.3-1.3-1.3-2.3c0-1,0-1.9,0-2.9c0.7,0,1.4,0,2.1,0c0.3,0,0.5-0.1,0.4-0.4
			c0-1.4,0-2.9,0-4.3c0-0.3-0.1-0.4-0.4-0.4c-0.7,0-1.4,0-2.1,0c0-1.5,0-3,0-4.5c0-1,0-1,1-1c0.5,0,1.1,0,1.6,0
			c0.2,0.2,0.3,0.5,0.2,0.8c0,1.4,0,2.8,0,4.2c0,0.4,0.1,0.6,0.5,0.5c0.5,0,1.1,0,1.6,0c0.4,0,0.7,0,1.1,0c0.5,0,0.8,0.1,1,0.6
			c0,0.8,0,1.6,0,2.4c0,0.4,0,0.9,0,1.3c0,0.6-0.3,0.8-0.8,0.9c-0.4,0-0.8,0-1.2,0c-0.4,0-0.7,0-1.1,0c-1.2,0-1-0.2-1,1
			c0,0.8,0.1,1.7-0.1,2.5C15.5,38.5,15.1,39.1,14.3,39.3z"/>
		<path class="st6" d="M49.1,29.6c0,0.8,0,1.6,0,2.4c0,0.4,0,0.8,0,1.2c0,0.7-0.3,1-1,1c-0.3,0-0.7,0-1,0c-0.5,0-1.1,0-1.6,0
			c-0.5,0-0.6,0.2-0.6,0.6c0,0.9,0,1.7,0,2.6c0,0.6-0.2,1.1-0.6,1.5c-0.2,0.2-0.4,0.4-0.6,0.6c-1-0.4-1.5-1.2-1.5-2.2c0-1,0-2,0-3.1
			c0.6,0,1.3,0,1.9,0c0.3,0,0.5-0.1,0.5-0.4c0-1.4,0-2.9,0-4.3c0-0.3-0.1-0.4-0.4-0.4c-0.7,0-1.3,0-2,0c0-1.6,0-3.2,0-4.8
			c0-0.5,0.2-0.7,0.7-0.7c0.6,0,1.3,0,1.9,0c0.1,0.3,0.1,0.5,0.1,0.8c0,1.4,0,2.8,0,4.2c0,0.4,0.1,0.6,0.5,0.6c0.5,0,1.1,0,1.7,0
			c0.4,0,0.7,0,1.1,0C48.6,29,48.9,29.2,49.1,29.6z"/>
		<path class="st3" d="M20,32c0-0.8,0-1.6,0-2.4c6.7,0,13.4,0,20.1,0c0,0.8,0,1.6,0,2.4C33.4,32,26.7,32,20,32z"/>
		<path class="st7" d="M13,29c0.7,0,1.4,0,2.1,0c0.3,0,0.4,0.1,0.4,0.4c0,1.4,0,2.9,0,4.3c0,0.3-0.1,0.4-0.4,0.4c-0.7,0-1.4,0-2.1,0
			c-0.4,0-0.8,0-1.2,0c-0.5,0-0.8-0.2-0.8-0.8c0-0.4,0-0.9,0-1.3c0.1-0.8,0-1.6,0-2.4c0.1-0.4,0.4-0.6,0.8-0.6
			C12.2,29.1,12.6,29,13,29z"/>
		<path class="st8" d="M40,32c0-0.8,0-1.6,0-2.4c0.2-0.4,0.4-0.6,0.9-0.6c0.4,0,0.8,0,1.1,0c0.7,0,1.3,0,2,0c0.3,0,0.4,0.1,0.4,0.4
			c0,1.4,0,2.9,0,4.3c0,0.4-0.2,0.4-0.5,0.4c-0.6,0-1.3,0-1.9,0c-0.4,0-0.8,0-1.1,0c-0.6,0-0.9-0.3-0.9-0.9
			C40.1,32.8,40.1,32.4,40,32z"/>
		<path class="st9" d="M47,29c-0.6,0-1.1,0-1.7,0c-0.4,0-0.5-0.1-0.5-0.6c0-1.4,0-2.8,0-4.2c0-0.3,0-0.5-0.1-0.8c0.5,0,1,0,1.5,0
			c0.6,0,0.8,0.2,0.8,0.8C47,25.9,47,27.4,47,29z"/>
		<path class="st9" d="M17.9,29c-0.5,0-1.1,0-1.6,0c-0.4,0-0.5-0.1-0.5-0.5c0-1.4,0-2.8,0-4.2c0-0.3,0-0.6-0.2-0.8
			c0.6-0.2,1.2-0.1,1.8-0.1c0.4,0,0.5,0.3,0.5,0.7C17.9,25.8,17.9,27.4,17.9,29z"/>
		<path class="st9" d="M43.6,39.5c0.2-0.2,0.4-0.4,0.6-0.6c0.4-0.4,0.6-0.9,0.6-1.5c0-0.9,0-1.7,0-2.6c0-0.5,0.1-0.7,0.6-0.6
			c0.5,0,1.1,0,1.6,0c0,1,0,2.1,0,3.1C47,39.2,44.9,40.2,43.6,39.5z"/>
		<path class="st9" d="M14.3,39.3c0.8-0.2,1.2-0.8,1.4-1.6c0.2-0.8,0.1-1.7,0.1-2.5c0-1.1-0.2-1,1-1c0.4,0,0.7,0,1.1,0
			c0,1.1,0,2.2,0,3.3c0,0.9-0.6,1.5-1.4,1.9C15.8,39.8,15,39.9,14.3,39.3z"/>
		<path class="st10" d="M36.4,6.1c-0.1,0.9-0.3,1-1.1,1c-3.5,0-7,0-10.5,0c-0.9,0-1-0.1-1.1-1c0.1-0.6-0.1-1.2,0.1-1.8
			c0.3,0.2,0.6,0.2,1,0.2c3.5,0,7.1,0,10.6,0c0.4,0,0.7,0,1-0.2C36.5,4.9,36.3,5.5,36.4,6.1z"/>
	</g>
	<g>
		<path class="st11" d="M19.9,46.7c-0.1,0.5-0.5,0.7-0.9,1c-1.1,0.9-2.2,1.9-3.2,2.8c-0.1,0.1-0.1,0.2-0.1,0.3
			c0.4,1.6,0.7,3.2,1.1,4.8c0.1,0.4,0,0.8-0.4,1.1c-0.4,0.3-0.7,0.2-1.1,0c-1.4-0.8-2.8-1.7-4.2-2.5c-0.1-0.1-0.2-0.1-0.3,0
			C9.4,55,8,55.8,6.6,56.7c-0.6,0.4-1.3,0-1.5-0.5c-0.1-0.2,0-0.4,0-0.5c0.4-1.6,0.7-3.2,1.1-4.8c0-0.2,0-0.2-0.1-0.3
			c-1.2-1.1-2.5-2.2-3.7-3.2c-0.3-0.3-0.5-0.6-0.3-1c0.1-0.4,0.4-0.6,0.8-0.7c0.8-0.1,1.7-0.2,2.5-0.2c0.8-0.1,1.6-0.1,2.5-0.2
			c0.1,0,0.2-0.1,0.2-0.2c0.6-1.5,1.3-3,1.9-4.5c0.2-0.4,0.5-0.6,0.9-0.6c0.5,0,0.7,0.2,0.9,0.7c0.6,1.5,1.3,3,1.9,4.5
			c0.1,0.2,0.2,0.2,0.3,0.2c1.6,0.1,3.3,0.3,4.9,0.4c0.4,0,0.7,0.3,0.8,0.7c0,0,0,0.1,0,0.1C19.9,46.4,19.9,46.5,19.9,46.7z"/>
	</g>
	<g>
		<path class="st11" d="M57.8,46.7c-0.1,0.5-0.5,0.7-0.9,1c-1.1,0.9-2.2,1.9-3.2,2.8c-0.1,0.1-0.1,0.2-0.1,0.3
			c0.4,1.6,0.7,3.2,1.1,4.8c0.1,0.4,0,0.8-0.4,1.1c-0.4,0.3-0.7,0.2-1.1,0c-1.4-0.8-2.8-1.7-4.2-2.5c-0.1-0.1-0.2-0.1-0.3,0
			c-1.4,0.8-2.8,1.7-4.2,2.5c-0.6,0.4-1.3,0-1.5-0.5c-0.1-0.2,0-0.4,0-0.5c0.4-1.6,0.7-3.2,1.1-4.8c0-0.2,0-0.2-0.1-0.3
			c-1.2-1.1-2.5-2.2-3.7-3.2c-0.3-0.3-0.5-0.6-0.3-1c0.1-0.4,0.4-0.6,0.8-0.7c0.8-0.1,1.7-0.2,2.5-0.2c0.8-0.1,1.6-0.1,2.5-0.2
			c0.1,0,0.2-0.1,0.2-0.2c0.6-1.5,1.3-3,1.9-4.5c0.2-0.4,0.5-0.6,0.9-0.6c0.5,0,0.7,0.2,0.9,0.7c0.6,1.5,1.3,3,1.9,4.5
			c0.1,0.2,0.2,0.2,0.3,0.2c1.6,0.1,3.3,0.3,4.9,0.4c0.4,0,0.7,0.3,0.8,0.7c0,0,0,0.1,0,0.1C57.8,46.4,57.8,46.5,57.8,46.7z"/>
	</g>
	<g>
		<path class="st11" d="M39.1,47.3c-0.1,0.5-0.5,0.7-0.9,1c-1.1,0.9-2.2,1.9-3.2,2.8c-0.1,0.1-0.1,0.2-0.1,0.3
			c0.4,1.6,0.7,3.2,1.1,4.8c0.1,0.4,0,0.8-0.4,1.1c-0.4,0.3-0.7,0.2-1.1,0c-1.4-0.8-2.8-1.7-4.2-2.5c-0.1-0.1-0.2-0.1-0.3,0
			c-1.4,0.8-2.8,1.7-4.2,2.5c-0.6,0.4-1.3,0-1.5-0.5c-0.1-0.2,0-0.4,0-0.5c0.4-1.6,0.7-3.2,1.1-4.8c0-0.2,0-0.2-0.1-0.3
			c-1.2-1.1-2.5-2.2-3.7-3.2c-0.3-0.3-0.5-0.6-0.3-1c0.1-0.4,0.4-0.6,0.8-0.7c0.8-0.1,1.7-0.2,2.5-0.2c0.8-0.1,1.6-0.1,2.5-0.2
			c0.1,0,0.2-0.1,0.2-0.2c0.6-1.5,1.3-3,1.9-4.5c0.2-0.4,0.5-0.6,0.9-0.6c0.5,0,0.7,0.2,0.9,0.7c0.6,1.5,1.3,3,1.9,4.5
			c0.1,0.2,0.2,0.2,0.3,0.2c1.6,0.1,3.3,0.3,4.9,0.4c0.4,0,0.7,0.3,0.8,0.7c0,0,0,0.1,0,0.1C39.1,47,39.1,47.2,39.1,47.3z"/>
	</g>
</g>
</svg>
