<?xml version="1.0" encoding="utf-8"?>
<!-- Generator: Adobe Illustrator 24.2.1, SVG Export Plug-In . SVG Version: 6.00 Build 0)  -->
<svg version="1.1" id="Layer_1" xmlns="http://www.w3.org/2000/svg" xmlns:xlink="http://www.w3.org/1999/xlink" x="0px" y="0px"
	 viewBox="0 0 200 200" style="enable-background:new 0 0 200 200;" xml:space="preserve">
<style type="text/css">
	.st0{fill:#0050C2;}
	.st1{fill:#EB494B;}
	.st2{fill:#0050AF;}
	.st3{fill:#005FE3;}
	.st4{fill:#F4565E;}
</style>
<rect x="45.7" y="99.5" class="st0" width="2.8" height="49"/>
<rect x="152.2" y="99.5" class="st1" width="2.8" height="49"/>
<rect x="45.7" y="157.1" class="st0" width="2.8" height="40.7"/>
<rect x="152.2" y="157.1" class="st1" width="2.8" height="40.7"/>
<rect x="151.7" y="1.5" class="st2" width="5" height="65.2"/>
<rect x="45" y="18" class="st1" width="8.1" height="65.2"/>
<g>
	<path class="st3" d="M100,22.9c0.2-3.2-0.4-6.5,0.3-9.7c1.2-5.9,4.8-9.7,10.6-11.3c0.2-0.1,0.4-0.2,0.6-0.4c13.9,0,27.8,0,41.7,0
		c0,21.8,0,43.6,0,65.4c-1.3,0-2.7,0.1-4,0.1c-10.6,0-21.2,0-31.8,0c-3.3,0-6.6-0.3-9.7-1.6c-5.5-3.4-7.9-8.3-7.7-14.9
		C100.2,41.4,100,32.2,100,22.9z"/>
	<path class="st0" d="M153.1,67c0-21.8,0-43.6,0-65.4c10.7,0,21.4,0,32.1,0c0.5,0.1,1,0.3,1.5,0.4c5.2,1.3,8.7,4.5,10.5,9.6
		c0.2,0.6,0.1,1.4,0.7,1.9c0,21.7,0,43.4,0,65.2c-1.3,2.9-3.2,4.9-6.6,4.7c-1.4-0.1-2.5-0.7-3.7-1.5c-6.1-4.1-12.3-8.2-18.4-12.3
		c-2.5-1.7-5.1-2.6-8-2.4C158.5,67.1,155.8,67,153.1,67z"/>
	<path class="st4" d="M112.6,197.8c-3.5-1.5-4.8-4.2-4.6-7.9c0.3-4.7-0.3-9.4,0.4-14.1c1.3-9.1,9.5-17.4,18.6-18.5
		c6.3-0.8,12.6-0.2,18.9-0.3c2.4-0.1,4.8,0.1,7.2,0.1c0,13.6,0,27.2,0,40.9C139.7,197.8,126.1,197.8,112.6,197.8z"/>
	<path class="st0" d="M46.9,156.9c8.3,0.1,16.7-0.6,25,0.2c11.4,1.1,19.8,10.6,20,22.1c0.1,3.4-0.1,6.8,0,10.2
		c0.2,3.8-0.9,6.7-4.5,8.4c-13.5,0-27,0-40.5,0C46.9,184.2,46.9,170.6,46.9,156.9z"/>
	<path class="st3" d="M46.9,156.9c0,13.6,0,27.3,0,40.9c-13.5,0-27,0-40.5,0c-3.4-1.8-4.5-4.5-4.2-8.3c0.4-4.7-0.4-9.4,0.4-14.1
		c1.9-10.3,10.3-18,20.7-18.5C31.1,156.6,39,156.9,46.9,156.9z"/>
	<path class="st1" d="M153.2,197.8c0-13.6,0-27.2,0-40.9c8.1-0.1,16.3-0.5,24.4,0.2c4.9,0.4,9.7,2.4,13.3,5.8
		c3,2.9,4.8,6.6,6.2,10.5c1.1,3.2,1.1,6.7,1.1,10.1c0,1.6-0.1,3.1-0.1,4.7c0,2.5,0.5,4.9-1.1,7c-2.3,3.1-5.2,2.6-8.6,2.6
		c-3.9,0-7.7,0-11.6,0c-7.7,0-15.5,0-23.2,0C153.3,197.8,153.2,197.8,153.2,197.8z"/>
	<path class="st1" d="M100,22.9c0,9.2,0.2,18.5,0,27.7c-0.2,6.6,2.2,11.5,7.7,14.9c-2.5,9.6-8.6,15.5-18.4,17.5
		c-0.9,0.2-1.9,0.2-2.9,0.2c-13.2,0-26.4,0-39.6,0c0-21.8,0-43.5,0-65.3c13.2,0,26.3,0,39.5,0C91.5,18,95.9,19.9,100,22.9z"/>
	<path class="st4" d="M46.9,18c0,21.8,0,43.5,0,65.3c-2.6,0.4-5.2,0.2-7.8,0.2c-3-0.1-5.7,0.7-8.2,2.5c-6.3,4.3-12.7,8.5-19.1,12.7
		c-3.7,2.4-8.1,0.9-9.5-3.2c-0.3-0.8-0.2-1.6-0.2-2.5c0-19.9,0.2-39.8-0.1-59.8C2,26.3,6.7,18,16.6,17.8c9.9-0.2,19.9,0,29.8,0
		C46.5,17.8,46.7,17.9,46.9,18z"/>
	<path class="st4" d="M153.2,148.7c-10.9,0.6-21.9-8.1-24.1-19.2c-2.9-14.4,6.3-27.5,20.8-29.7c1.1-0.2,2.2,0,3.2,0
		C153.2,116.1,153.2,132.4,153.2,148.7z"/>
	<path class="st0" d="M46.9,99.8c12.4-0.5,23.7,10.2,24.5,22.6c0.9,14.5-10.3,26.1-23.8,26.4c-0.3,0-0.5,0-0.8,0
		C46.9,132.4,46.9,116.1,46.9,99.8z"/>
	<path class="st3" d="M46.9,99.8c0,16.3,0,32.6,0,48.9c-10.5,0.5-21.1-7.8-23.7-18.5c-3.4-14.5,6.1-28.4,20.8-30.4
		C45,99.7,45.9,99.8,46.9,99.8z"/>
	<path class="st1" d="M153.2,148.7c0-16.3,0-32.6,0-48.9c11.1-0.4,21.4,8.1,23.9,19.7c3,14.2-7.9,28.5-22.3,29.2
		C154.2,148.8,153.7,148.7,153.2,148.7z"/>
</g>
</svg>
