<?xml version="1.0" encoding="utf-8"?>
<!-- Generator: Adobe Illustrator 24.2.1, SVG Export Plug-In . SVG Version: 6.00 Build 0)  -->
<svg version="1.1" id="Layer_1" xmlns="http://www.w3.org/2000/svg" xmlns:xlink="http://www.w3.org/1999/xlink" x="0px" y="0px"
	 viewBox="0 0 200 200" style="enable-background:new 0 0 200 200;" xml:space="preserve">
<style type="text/css">
	.st0{fill:#005FE3;}
	.st1{fill:#F4565E;}
	.st2{fill:#0050AF;}
	.st3{fill:#EB494B;}
	.st4{opacity:0.55;fill:#005FE3;}
	.st5{opacity:0.24;fill:#F4565E;}
	.st6{fill:#FEFDFB;}
</style>
<g>
	<path class="st0" d="M34.1,177.4c-0.6-1-0.8-2.2-0.8-3.4c0-12.5,0-25.1,0-37.6c9.1,2.3,18.2,4.7,27.3,7
		c13.1,3.4,26.2,6.7,39.2,10.1c2.3,0.6,4.5,0.7,6.9,0.1c7.8-2.1,15.7-4.1,23.5-6.1c12.2-3.2,24.4-6.3,36.6-9.5
		c1.6-0.4,1.7,0.2,1.7,1.4c0,9,0,18.1,0,27.1c0,2.8-1.1,5.3-3,7.5c-3.6,3.9-8.2,6.1-13.1,7.9c-11.5,4.2-23.5,6-35.6,6.9
		c-7.4,0.6-14.9,0.7-22.4,0.6c-10.5-0.2-21-0.9-31.3-2.7c-7.6-1.3-15-3.1-22.2-6.1C38.6,179.7,36.7,177.9,34.1,177.4z M49.4,168.4
		c0-0.5,0-0.9,0-1.4c0-2.3-1-3.4-3-3.3c-1.9,0-2.8,1.1-2.8,3.3c0,1,0,1.9,0,2.9c0,1.5,0.9,2.3,2.1,2.8c1.1,0.5,2.1-0.2,3-0.9
		C49.7,170.8,49.3,169.5,49.4,168.4z M49.4,152.4c0-3.2-0.6-4.2-2.5-4.4c-1.4-0.2-2.5,0.2-3.1,1.5c-0.6,1.2-0.1,5.1,0.7,5.8
		c0.9,0.8,1.8,1.3,3,0.7C49.1,155.3,49.6,153.9,49.4,152.4z"/>
	<path class="st0" d="M142.5,100.8c18,4.6,35.9,9.2,53.9,13.8c2.8,0.7,3.3,1.6,2.9,4.9c-1.3,0.4-2.5,1-3.9,1.3
		c-7.9,1.9-15.8,3.9-23.7,5.9c-21.8,5.6-43.6,11.2-65.4,16.8c-2,0.5-3.9,0.5-5.9,0c-15.9-4.1-31.9-8.2-47.8-12.3
		c-13.8-3.5-27.6-7-41.4-10.5c-1.3-0.3-2.5-0.7-3.5-1.6c-0.2-3.1,0.2-3.7,2.6-4.3c16.1-4.1,32.2-8.3,48.2-12.4
		c4.8,4.9,10.2,8.8,16.3,12.1c-4.5,0-9.1,0-13.6,0.1c-1.7,0-2.7,1-3,2.6c-0.3,1.7,0.5,2.7,2.1,3.3c0.9,0.3,1.9,0.3,2.9,0.3
		c24.4,0,48.8,0,73.2,0c0.6,0,1.2,0,1.9,0c2.1-0.3,3.6-1.7,3.5-3.3c-0.1-1.7-1.6-2.8-3.9-2.8c-4.3,0-8.7,0-13,0
		C131.4,111,137.3,106.4,142.5,100.8z"/>
	<path class="st1" d="M55,98c-5.4-6.6-8.8-14.3-10.6-22.6C38.1,45,56.9,15.4,87.2,8.6c20.4-4.6,38.1,1,53,15.7
		c1.7,1.7,3.5,3.4,4.7,5.5c-0.5,1.4,0.7,2.4,1.2,3.5c4.5,9.9,6.4,20.3,5,31.1c-0.9,6.9-2.9,13.5-6.3,19.7
		c-5.5,10-13.2,17.8-23.2,23.2c-10.6,5.7-21.9,7.6-33.9,6.1c-10.6-1.3-19.9-5.4-28.2-12C58,100.2,57,98.4,55,98z M99.8,21
		c-23.8-0.5-43,19.2-42.8,42.7c0.2,23.9,18.7,41.4,40.4,42.5c26.2,1.4,44.3-19.7,45.2-40.8C143.6,40.4,122.2,20.1,99.8,21z
		 M48.6,61.2c0,1.2,0.6,2,1.8,2c1.2,0.1,1.7-0.7,1.8-1.8c0.1-1.1,0.3-2.2,0.4-3.3c1.2-11.7,6.5-21.4,15-29.4c1.1-1,2.4-1.8,3.5-2.8
		c0.7-0.6,1.2-1.4,0.6-2.4c-0.7-1-1.6-1-2.6-0.5c-0.4,0.2-0.8,0.5-1.2,0.8c-3.3,2.6-6.2,5.5-8.7,8.7C52.6,40.9,49.3,50.5,48.6,61.2z
		 M96.4,13.2c-3.1,0.2-6.1,0.6-9.1,1.3c-1.2,0.3-2.4,0.9-2.1,2.3c0.3,1.6,1.7,1.5,3,1.2c2.7-0.6,5.4-1.1,8.1-1.1c1.5,0,3.4,0,3.4-2
		C99.7,12.8,97.8,13.2,96.4,13.2z"/>
	<path class="st2" d="M34.1,177.4c2.6,0.5,4.5,2.3,6.8,3.3c7.1,3.1,14.6,4.9,22.2,6.1c10.4,1.7,20.8,2.5,31.3,2.7
		c7.5,0.1,15,0,22.4-0.6c12.1-0.9,24.1-2.7,35.6-6.9c4.9-1.8,9.5-4,13.1-7.9c2-2.1,3-4.6,3-7.5c0.1-9,0-18.1,0-27.1
		c0-1.2,0-1.9-1.7-1.4c-12.2,3.2-24.4,6.3-36.6,9.5c-7.8,2-15.7,4-23.5,6.1c-2.4,0.6-4.6,0.5-6.9-0.1c-13.1-3.4-26.2-6.7-39.2-10.1
		c-9.1-2.3-18.2-4.7-27.3-7c0-1.7,0-3.3,0-5c1.8-0.1,3.5,0.7,5.2,1.1c20.6,5.3,41.3,10.6,61.9,15.9c2.1,0.5,4.2,0.6,6.3,0
		c5.9-1.6,11.8-3.1,17.7-4.6c10.5-2.7,21.1-5.5,31.6-8.2c5.9-1.5,11.8-2.8,17.8-4.3c0,13.9,0,27.7,0,41.6c0,4.6-2.4,7.8-5.9,10.3
		c-6.2,4.5-13.3,6.8-20.6,8.5c-17.8,4.1-35.9,5.1-54.1,4.3c-11.8-0.5-23.6-1.8-35.1-4.7c-6.1-1.5-12.1-3.5-17.5-7
		C37.8,182.6,35.3,180.6,34.1,177.4z"/>
	<path class="st2" d="M173.8,131.5c-5.9,1.4-11.9,2.8-17.8,4.3c-10.6,2.7-21.1,5.4-31.6,8.2c-5.9,1.5-11.8,3-17.7,4.6
		c-2.1,0.6-4.2,0.5-6.3,0c-20.6-5.3-41.3-10.6-61.9-15.9c-1.7-0.4-3.4-1.2-5.2-1.1c-6.7-2-13.5-3.6-20.2-5.3c-1.3-0.3-2.6-0.6-3.9-1
		c-2.4-1.6-1.5-4-1.5-6.1c1,0.9,2.2,1.3,3.5,1.6c13.8,3.5,27.6,7,41.4,10.5c15.9,4.1,31.9,8.2,47.8,12.3c2,0.5,3.9,0.5,5.9,0
		c21.8-5.6,43.6-11.2,65.4-16.8c7.9-2,15.8-4,23.7-5.9c1.3-0.3,2.6-0.9,3.9-1.3c0,0.5,0.1,1,0.1,1.4c0,3.4-0.4,3.9-3.6,4.7
		c-7.1,1.8-14.2,3.6-21.3,5.5C174.2,131.2,174,131.4,173.8,131.5z"/>
	<path class="st3" d="M55,98c2,0.4,3,2.1,4.4,3.3c8.3,6.6,17.6,10.7,28.2,12c11.9,1.5,23.3-0.4,33.9-6.1
		c10.1-5.4,17.7-13.2,23.2-23.2c3.4-6.2,5.4-12.8,6.3-19.7c1.4-10.8-0.4-21.2-5-31.1c-0.5-1.1-1.6-2-1.2-3.5
		c5.9,7.5,9.4,16.1,10.7,25.5c2.5,17.2-2.2,32.3-13.2,45.6c-5.2,5.6-11.1,10.2-17.8,13.7c-3.9,0-7.8,0-11.8,0
		c-12.7,0-25.5,0-38.2-0.1c-6-3.2-11.5-7.2-16.3-12.1C57.3,100.9,56.2,99.5,55,98z"/>
	<path class="st1" d="M9.2,125.2c1.3,0.3,2.6,0.6,3.9,1c0,8.3,0,16.7,0,25c0,1,0.1,1.6,1.2,2.1c4.1,2.1,5.4,6.2,3.4,10.3
		c-0.4,0.9-0.4,1.6-0.2,2.5c1.4,5.2,2.7,10.4,4,15.6c0.9,3.5-0.1,4.9-3.6,4.9c-4.2,0-8.4,0-12.6,0c-1.7-1.6-1.8-3.4-1.1-5.6
		c1.4-4.6,2.4-9.4,3.7-14.1c0.4-1.4,0.3-2.7-0.3-4c-1.1-2.4-0.8-4.7,0.7-7c0.9-1.5,2.5-2.1,4-3.4c-1.2,0-2.1,0-2.9,0
		C9.1,143.4,9.2,134.3,9.2,125.2z"/>
	<path class="st3" d="M9.1,152.5c0.9,0,1.7,0,2.9,0c-1.5,1.3-3.1,1.9-4,3.4c-1.4,2.3-1.8,4.6-0.7,7c0.6,1.3,0.7,2.6,0.3,4
		c-1.3,4.7-2.3,9.4-3.7,14.1c-0.7,2.2-0.6,4,1.1,5.6c-3.9,0.5-5.5-1.2-4.5-4.9c1.4-5.3,2.7-10.6,4.1-15.9c0.2-0.7,0.3-1.2-0.1-1.9
		c-2.3-4.6-0.9-8.7,3.8-10.9C8.7,152.9,8.9,152.7,9.1,152.5z"/>
	<path class="st4" d="M49.4,168.4c-0.1,1.1,0.4,2.4-0.8,3.4c-0.9,0.8-1.9,1.4-3,0.9c-1.1-0.5-2.1-1.3-2.1-2.8c0-1,0-1.9,0-2.9
		c0-2.2,0.9-3.2,2.8-3.3c2,0,2.9,1,3,3.3C49.4,167.5,49.4,167.9,49.4,168.4z"/>
	<path class="st4" d="M49.4,152.4c0.3,1.5-0.2,2.8-2,3.6c-1.2,0.5-2.1,0-3-0.7c-0.8-0.8-1.3-4.6-0.7-5.8c0.6-1.3,1.8-1.6,3.1-1.5
		C48.8,148.3,49.4,149.3,49.4,152.4z"/>
	<path class="st2" d="M74.7,114.5c12.7,0,25.5,0.1,38.2,0.1c3.9,0,7.8,0,11.8,0c4.3,0,8.7,0,13,0c2.3,0,3.8,1.1,3.9,2.8
		c0.1,1.6-1.4,3.1-3.5,3.3c-0.6,0.1-1.2,0-1.9,0c-24.4,0-48.8,0-73.2,0c-1,0-1.9,0-2.9-0.3c-1.6-0.6-2.4-1.6-2.1-3.3
		c0.3-1.6,1.3-2.6,3-2.6C65.6,114.5,70.2,114.5,74.7,114.5z"/>
	<path class="st3" d="M99.8,21c22.4-0.9,43.8,19.3,42.7,44.4c-0.9,21-19,42.2-45.2,40.8c-21.7-1.2-40.2-18.6-40.4-42.5
		C56.8,40.3,75.9,20.6,99.8,21z M85.8,75.2c0.4,5,3.2,9.2,8.6,11.5c1.4,0.6,1.9,1.3,1.7,2.7c0,0.3,0,0.6,0,0.8
		c0.1,2.3,1.6,3.9,3.6,4c2,0,3.9-1.6,3.7-3.8c-0.2-2.4,0.8-3.2,2.8-4.2c5.2-2.5,8.3-8.5,7.5-13.8c-1.1-7.5-6.2-12.1-13.9-12.5
		c-3.7-0.2-6.4-2.8-6.6-6.1c-0.2-3.6,2.5-6.7,6.1-7c3.5-0.3,6.5,2.4,7,6.4c0.4,2.7,1.9,4.1,4.1,3.9c2.2-0.3,3.6-2.3,3.3-4.9
		c-0.8-5.7-3.7-9.7-9-11.8c-0.9-0.4-1.3-0.8-1.2-1.8c0.1-0.8,0.1-1.5-0.1-2.3c-0.3-2-2-3.3-4-3.2c-1.9,0.1-3.2,1.5-3.4,3.5
		c0,0.5-0.1,1,0,1.4c0.2,1.3-0.4,1.9-1.6,2.4c-7.2,3-10.6,10.8-7.8,17.9c2.3,5.8,6.9,8.7,13.1,9.1c4.1,0.2,7.1,3.7,6.5,7.4
		c-0.6,3.3-3.4,5.7-6.6,5.7c-3.4,0-6.1-2.7-6.4-6.3c-0.3-2.6-1.8-4.1-4.1-3.9C87.1,70.4,85.8,72,85.8,75.2z"/>
	<path class="st5" d="M48.6,61.2c0.6-10.7,4-20.3,10.6-28.7c2.6-3.3,5.5-6.2,8.7-8.7c0.4-0.3,0.8-0.6,1.2-0.8c1-0.4,1.9-0.4,2.6,0.5
		c0.7,1,0.1,1.8-0.6,2.4c-1.1,1-2.4,1.8-3.5,2.8c-8.6,8-13.8,17.7-15,29.4c-0.1,1.1-0.3,2.2-0.4,3.3c-0.1,1.1-0.6,1.9-1.8,1.8
		C49.3,63.1,48.7,62.3,48.6,61.2z"/>
	<path class="st5" d="M96.4,13.2c1.4,0,3.3-0.4,3.3,1.7c0,2-1.9,2-3.4,2c-2.8,0-5.4,0.5-8.1,1.1c-1.3,0.3-2.6,0.4-3-1.2
		c-0.3-1.4,0.8-2,2.1-2.3C90.2,13.7,93.3,13.4,96.4,13.2z"/>
	<path class="st6" d="M85.8,75.2c0-3.2,1.3-4.8,3.4-5c2.3-0.2,3.8,1.3,4.1,3.9c0.4,3.6,3,6.3,6.4,6.3c3.2,0,6-2.4,6.6-5.7
		c0.7-3.8-2.4-7.2-6.5-7.4c-6.2-0.3-10.8-3.2-13.1-9.1c-2.8-7.1,0.6-14.9,7.8-17.9c1.2-0.5,1.8-1.1,1.6-2.4c-0.1-0.5,0-1,0-1.4
		c0.1-2,1.5-3.4,3.4-3.5c2-0.1,3.6,1.2,4,3.2c0.1,0.7,0.1,1.5,0.1,2.3c-0.1,1,0.3,1.4,1.2,1.8c5.3,2.1,8.3,6.2,9,11.8
		c0.3,2.6-1,4.7-3.3,4.9c-2.2,0.2-3.7-1.2-4.1-3.9c-0.6-4-3.5-6.7-7-6.4c-3.6,0.3-6.3,3.4-6.1,7c0.2,3.4,2.9,5.9,6.6,6.1
		c7.7,0.5,12.7,5,13.9,12.5c0.8,5.3-2.3,11.4-7.5,13.8c-2,0.9-3,1.8-2.8,4.2c0.2,2.3-1.7,3.9-3.7,3.8c-2.1,0-3.5-1.6-3.6-4
		c0-0.3,0-0.6,0-0.8c0.2-1.4-0.3-2.1-1.7-2.7C89,84.4,86.2,80.2,85.8,75.2z"/>
</g>
</svg>
