<?xml version="1.0" encoding="utf-8"?>
<!-- Generator: Adobe Illustrator 24.2.1, SVG Export Plug-In . SVG Version: 6.00 Build 0)  -->
<svg version="1.1" id="Layer_1" xmlns="http://www.w3.org/2000/svg" xmlns:xlink="http://www.w3.org/1999/xlink" x="0px" y="0px"
	 viewBox="0 0 60 60" style="enable-background:new 0 0 60 60;" xml:space="preserve">
<style type="text/css">
	.st0{fill:#411435;}
	.st1{fill:#945B48;}
	.st2{fill:#F2991A;}
	.st3{fill:#FDCB01;}
	.st4{fill:#56506C;}
	.st5{fill:#B47E59;}
	.st6{fill:#E7977F;}
	.st7{fill:#F7C6A4;}
	.st8{fill:#F5C5A4;}
	.st9{fill:#935A47;}
	.st10{fill:#E6967E;}
	.st11{fill:#635D76;}
	.st12{fill:#C3AFCC;}
	.st13{fill:#F9F7F8;}
	.st14{fill:#E52D5C;}
	.st15{fill:#F9A516;}
	.st16{fill:#FC646F;}
	.st17{fill:#FB4855;}
	.st18{fill:#FB4956;}
	.st19{fill:#FB4856;}
	.st20{fill:#F9EE61;}
	.st21{fill:#F9D107;}
	.st22{fill:#F9A515;}
</style>
<g>
	<g>
		<path class="st0" d="M37,39.1c0.3-1.6,0.5-3.1,0.7-4.6c0.8-5.2,1.6-10.4,2.5-15.6c0.1-0.4,0.3-0.7,0.8-0.7
			c0.5,0.1,0.6,0.4,0.5,0.9c-0.6,4-1.3,7.9-1.9,11.9c-0.5,3.2-1,6.5-1.5,9.7c-0.1,0.4,0,0.6,0.5,0.8c1.3,0.4,1.8,1.5,2,2.7
			c0.2,1.7,0.1,3.3-0.5,4.9c-0.4,1.1-1,1.9-2.2,2.2c-0.2,0-0.3,0.1-0.4,0.3c-1.4,3-4.1,4.4-7.1,5.1c-2.7,0.6-5.4,0.7-8.2,0.6
			c-2.6,0-5.3-0.2-7.8-0.9c-1.6-0.4-3.1-1.1-4.3-2.2C9.9,54,9.7,53.9,9.4,54c-1.2,0-2.4,0.2-3.5,0.6c-1,0.3-1.3,0.1-1.3-0.9
			c0-0.7,0-1.5,0-2.2c0-0.3-0.1-0.3-0.3-0.3c-1.3,0-1.9-0.3-2.3-1.5c-0.5-1.7-0.6-3.4,0.1-5.1c0.4-1.1,1-1.5,2.2-1.3
			c0.3,0,0.3-0.1,0.3-0.3c0-0.7,0-1.3,0-2c0-0.4,0.2-0.7,0.6-0.9c1.1-0.6,2.2-1,3.4-1.2c0.3-0.1,0.5-0.2,0.6-0.5
			c0.3-0.6,0.7-1.1,1.1-1.7c0.1-0.1,0.3-0.2,0.1-0.5c-0.9-1.4-1-3-0.9-4.5c0.1-1,0.2-2,0.5-2.9c0.1-0.3,0-0.5-0.2-0.8
			c-1.8-1.7-2.2-3.9-1.1-6c0.2-0.3,0.2-0.6,0.2-0.9c0-2.5,0-4.9,0.3-7.3c0.4-3.6,2.2-6.3,5.2-8.2c0.2-0.1,0.4-0.2,0.5-0.5
			C15.5,3,17.1,2,19.2,1.6C21.8,1,24.4,1.4,27,2.2c2.2,0.6,4.2,1.5,6,3c2.1,1.8,3.1,4.2,3.6,6.8c0.5,2.8,0.3,5.6-0.2,8.4
			c-0.1,0.3,0,0.6,0.2,0.9c1.6,2.1,1.3,4.9-0.7,6.5c-0.3,0.2-0.3,0.4-0.2,0.8c0.5,2,0.8,4,0.3,6.1c0,0.2-0.1,0.3-0.1,0.5
			c-0.6,0.8-0.3,1.4,0.2,2C36.4,37.8,36.7,38.5,37,39.1z M22.8,20.1c0.4,0.1,0.6-0.1,0.6-0.4c0-0.2,0.1-0.4,0.2-0.6
			c0.4-1,0.4-1-0.7-1.4c-0.8-0.4-1.6-0.7-2.4-1.1c1,0.9,1.6,1.9,1.8,3.1C22.4,20.1,22.5,20.2,22.8,20.1z M3,47.2
			c0,0.7,0.1,1.5,0.3,2.2c0.1,0.4,0.4,0.6,0.8,0.5c1.3-0.3,2.2-1.3,2.2-2.6c0-1.4-0.9-2.4-2.2-2.7c-0.4-0.1-0.6,0-0.8,0.4
			C3.1,45.7,3,46.4,3,47.2z M19.2,16c0.1,0.1,0.1,0.1,0.2,0.1c0-0.1-0.1-0.1-0.1-0.2c-1.2-0.9-2.4-2-3.2-3.4
			c-0.1-0.2-0.2-0.2-0.4-0.1c-1.5,0.6-2.8,3.2-2.4,4.9C15.1,15.6,17,15.2,19.2,16z M14.1,34.6c-1.4,1-2.4,2.3-3.3,3.7
			c-0.3,0.4,0.1,0.4,0.3,0.4c1.3,0,2.5,0.3,3.7,0.7c0.4,0.2,0.9,0.3,1.3,0.5c0.2,0.1,0.5,0.1,0.4-0.2c-0.4-0.9-0.2-2.3-1.6-2.7
			c-0.2,0-0.3-0.2-0.5-0.3c-0.4-0.3-0.6-0.6-0.4-1.1C14.1,35.3,14.1,34.9,14.1,34.6C14.2,34.6,14.2,34.6,14.1,34.6
			C14.2,34.5,14.1,34.6,14.1,34.6z M22.8,21.5c-0.4-0.1-0.5,0.1-0.5,0.4c-0.8,3.3-4.1,5-7.1,3.7c-0.6-0.3-1.2-0.7-1.7-1.2
			c0,3.9,3.7,8.8,9.4,8.8c4.8,0.2,9.4-4,9.5-8.7c-0.1,0-0.1,0-0.2,0.1c-3,2.9-8,1.3-8.8-2.7C23.3,21.5,23.1,21.4,22.8,21.5z
			 M31.3,10.6c0.4,0,0.7,0.2,1,0.4c0.7,0.7,1,1.6,1.2,2.5c0.4,1.7,0.3,3.4,0.2,5.1c0,0.7,0.1,1,0.8,1.2c0.5,0.1,0.6,0,0.6-0.4
			c0.3-2.4,0.4-4.9,0-7.3c-0.5-3-1.9-5.5-4.6-7c-2.3-1.3-4.7-2.1-7.3-2.4c-1.6-0.2-3.3-0.2-4.9,0.4c-0.8,0.3-1.5,0.7-1.9,1.6
			c-0.1,0.2-0.2,0.4-0.3,0.7c-0.3,1-0.3,2-0.1,3c0.4,2.2,1.3,4,3,5.5c1.5,1.4,3.3,2.2,5.1,2.9c0.5,0.2,0.8,0.1,1.2-0.2
			c1.7-1.2,3.4-1.4,5.3-0.5c0.6,0.3,1.1,0.7,1.6,1.2c0-0.7,0.1-1.4,0-2c-0.1-1.3-0.2-2.6-1.3-3.6C30.6,11.4,30.8,11,31.3,10.6z
			 M26.8,53.2c0-0.2,0-0.3,0-0.4c0-3.8,0-7.5,0-11.3c0-0.4-0.2-0.6-0.5-0.7c-3-1.3-6-1.1-9,0.1C17,41,17,41.2,17,41.5
			c0,3.7,0,7.5,0,11.2c0,0.5,0.1,0.5,0.6,0.4c1.5-0.3,3-0.5,4.5-0.6C23.7,52.6,25.3,52.8,26.8,53.2z M5.9,53.2
			c1.3-0.3,2.5-0.5,3.7-0.6c1.9-0.1,3.7,0.1,5.5,0.6c0.3,0.1,0.6,0.2,0.5-0.3c0-3.8,0-7.6,0-11.4c0-0.2,0-0.4-0.3-0.5
			c-3-1.3-6.1-1.5-9.1-0.1C6,41,5.9,41.2,5.9,41.5c0,0.7,0,1.3,0,2c0,0.2,0.1,0.4,0.3,0.6c2.1,1.8,2.1,4.4,0,6.3
			c-0.2,0.1-0.3,0.3-0.3,0.5C5.9,51.6,5.9,52.4,5.9,53.2z M31.4,34.2c0,0.5,0.2,0.8,0.2,1.1c0.2,0.9,0.1,1.3-0.7,1.5
			c-1,0.3-1.4,1-1.6,1.9c-0.1,0.3-0.2,0.6-0.3,0.9c-0.6,1.3-0.9,2.7-0.8,4.2c0.1,1.8,0,3.6,0,5.5c0,1.5,0,2.9,0,4.4
			c0,1.1-0.3,1.3-1.3,1c-0.6-0.2-1.1-0.4-1.7-0.4C23.5,54,23.6,54,23,55.5c-0.1,0.4-0.1,0.5,0.3,0.4c1.2,0,2.4,0,3.5-0.1
			c1.8-0.2,3.5-0.4,5.1-1s2.9-1.5,3.9-2.9c0.3-0.4,0.2-0.5-0.3-0.7c-1.5-0.4-2.7-1.4-3.3-2.9c-1.3-3.1,0.3-6.2,3.5-7
			c0.5-0.1,0.5-0.3,0.4-0.7c-0.6-1.4-1.2-2.7-2.1-3.9C33.3,35.8,32.5,34.9,31.4,34.2z M17.2,24.7c2.2,0,3.9-1.8,3.9-3.9
			s-1.8-3.9-3.9-3.9c-2.2,0-3.9,1.8-3.9,3.9C13.3,23,15.1,24.7,17.2,24.7z M33.2,46.2c0,1.9,1.3,3.4,3.1,3.8
			c1.1,0.2,1.9-0.1,2.3-0.9c0.7-1.7,0.9-3.5,0.5-5.3c-0.2-0.7-0.7-1.1-1.4-1.3C35.5,42,33.2,43.8,33.2,46.2z M10.3,19.4
			c-0.1,0.8,0,1,0.5,0.7c0.2-0.1,0.4-0.2,0.7-0.3c0.4-0.1,0.5-0.3,0.5-0.6c0-1,0-2,0.1-3c0.2-2.1,1.1-3.8,3-4.9
			c0.3-0.1,0.4-0.3,0.2-0.6c-0.4-1.1-0.6-2.2-0.7-3.3c0-0.3-0.1-0.4-0.4-0.2c-1.7,1.3-2.9,3-3.5,5.1C10.2,14.7,10.4,17.2,10.3,19.4z
			 M28,19.4c-0.8-0.2-1.6-0.5-2.3-0.7c-0.3-0.1-0.4,0-0.6,0.2c-0.3,0.6-0.5,1.2-0.5,1.9c0,2.3,1.8,4,4.2,3.9
			c2.2-0.1,3.8-2.2,3.5-4.4c0-0.3-0.2-0.5-0.5-0.4c-0.9,0.1-1.8,0-2.6-0.2c-0.2,0-0.4-0.1-0.6,0c0.6,0.4,1,0.8,1.3,1.4
			c0.2,0.4,0.2,0.7-0.2,0.9c-0.3,0.2-0.7,0.1-0.9-0.2c-0.9-1.1-0.9-1.1-1.9,0c-0.3,0.3-0.6,0.4-0.9,0.2c-0.3-0.2-0.4-0.5-0.2-0.9
			C26.3,20.3,26.9,19.5,28,19.4z M27.4,33.6c-3.1,1.3-6.1,1.3-9.1,0c0.1,2,2.1,3.8,4.3,3.9C24.9,37.7,27.1,35.9,27.4,33.6z
			 M11.4,35.2c1-1,2-1.9,3.2-2.6c0.3-0.2,0.9-0.4,1-0.7s-0.5-0.6-0.7-0.9c-0.1-0.1-0.1-0.2-0.2-0.3c-0.7-0.9-1.2-2.1-2.7-1.8
			c0,0,0,0-0.1,0c-0.3-0.1-0.4,0-0.5,0.3c-0.4,1.3-0.6,2.7-0.4,4.1C10.9,33.9,11,34.6,11.4,35.2z M34.4,35c0.2-0.2,0.3-0.5,0.3-0.8
			c0.3-1.6,0.2-3.1-0.2-4.7c-0.1-0.6-0.3-0.9-1-0.7c-0.2,0.1-0.5,0-0.7,0c-0.4,0-0.6,0.1-0.7,0.4c-0.3,0.5-0.7,1-1.1,1.5
			c-0.3,0.3-0.7,0.6-0.7,0.8c0,0.3,0.6,0.4,0.9,0.6C32.4,33.1,33.5,34,34.4,35z M9.4,23.9c0,2,1.2,3.4,2.7,3.7
			c0.3,0.1,0.6,0.1,0.4-0.4c-0.2-0.5-0.3-1.1-0.4-1.6c-0.3-1.4-0.2-2.7-0.2-4.1c0-0.4-0.1-0.5-0.5-0.3C10.2,21.8,9.5,22.8,9.4,23.9z
			 M33.8,21c0,0.2,0,0.3,0,0.4c0,2,0.1,3.9-0.6,5.9c-0.2,0.6,0.3,0.3,0.5,0.3c1.5-0.3,2.6-1.7,2.6-3.3C36.3,22.8,35.3,21.5,33.8,21z
			 M12.2,54.1c0.2,0.1,0.3,0.2,0.3,0.2c0.3,0.1,0.5,0.3,0.8,0.4c2.4,1,4.9,1.2,7.5,1.3c0.6,0,0.7-0.3,0.7-0.8c0-0.3-0.2-0.5-0.2-0.8
			C21.2,54.1,21,54,20.7,54c-1.2,0.2-2.4,0.3-3.5,0.6c-0.6,0.2-1.1,0.2-1.7,0C14.5,54.4,13.5,54.1,12.2,54.1z M27.6,36.5
			c0.9-0.1,1.7-0.3,2.5-0.6c0.1-0.1,0.3-0.1,0.2-0.3c-0.2-0.8-0.4-1.7-0.7-2.5c-0.1-0.2-0.4-0.3-0.6-0.3s-0.2,0.2-0.2,0.3
			C28.8,34.3,28.4,35.4,27.6,36.5z M16.8,32.7C16.4,33,16,33,15.9,33.5c-0.2,0.6-0.4,1.3-0.5,1.9c-0.1,0.2,0,0.3,0.2,0.4
			c0.8,0.3,1.6,0.5,2.5,0.6C17.3,35.4,16.9,34.2,16.8,32.7z M26.5,17.6c0.8,0.4,1.7,0.5,2.6,0.7c0.7,0.1,1.4,0.3,2.1,0.3
			c0.1,0,0.2,0,0.3-0.1c0.1-0.1,0-0.2-0.1-0.3C30.4,16.9,27.9,16.5,26.5,17.6z M28.3,37.8c-1.5,0-2.8,0.3-4.1,1
			c1.1,0.2,2.1,0.5,3.1,1c0.2,0.1,0.3,0,0.4-0.1C27.8,39.1,28,38.4,28.3,37.8z M17.3,37.7c0.1,0.3,0.2,0.5,0.2,0.8
			c0.3,0.9,0.3,0.9,1.1,0.6c0.7-0.2,1.5-0.3,2.3-0.5C19.9,37.8,18.6,37.9,17.3,37.7z"/>
		<path class="st1" d="M31.3,10.6c-0.5,0.4-0.7,0.7-0.3,1.1c1.1,0.9,1.2,2.3,1.3,3.6c0.1,0.6,0,1.3,0,2c-0.6-0.5-1-0.9-1.6-1.2
			c-1.9-0.9-3.7-0.6-5.3,0.5c-0.4,0.3-0.8,0.3-1.2,0.2c-1.9-0.7-3.6-1.5-5.1-2.9c-1.6-1.5-2.6-3.4-3-5.5c-0.2-1-0.1-2,0.1-3
			c0.1-0.2,0.1-0.5,0.3-0.7c1.4-0.2,2.8-0.2,4.2,0c2.5,0.4,4.9,1.2,7.2,2.5C29.3,8.1,30.5,9.1,31.3,10.6z"/>
		<path class="st2" d="M26.8,53.2c-1.6-0.4-3.1-0.6-4.7-0.6c-1.5,0-3,0.2-4.5,0.6c-0.4,0.1-0.6,0-0.6-0.4c0-3.7,0-7.5,0-11.2
			c0-0.3,0-0.4,0.3-0.6c3-1.2,6-1.5,9-0.1c0.3,0.1,0.5,0.3,0.5,0.7c0,3.8,0,7.5,0,11.3C26.9,52.9,26.8,53,26.8,53.2z"/>
		<path class="st3" d="M5.9,53.2c0-0.8,0-1.6,0-2.3c0-0.2,0.1-0.4,0.3-0.5c2.1-1.9,2.1-4.5,0-6.3c-0.2-0.2-0.3-0.3-0.3-0.6
			c0-0.7,0-1.3,0-2c0-0.3,0.1-0.5,0.4-0.7c3.1-1.4,6.1-1.1,9.1,0.1c0.2,0.1,0.3,0.2,0.3,0.5c0,3.8,0,7.6,0,11.4
			c0,0.5-0.3,0.4-0.5,0.3c-1.8-0.4-3.7-0.6-5.5-0.6C8.4,52.7,7.2,52.9,5.9,53.2z"/>
		<path class="st4" d="M31.4,34.2c1.1,0.7,1.9,1.6,2.6,2.5c0.9,1.2,1.6,2.5,2.1,3.9c0.2,0.4,0.1,0.6-0.4,0.7c-3.2,0.8-4.8,4-3.5,7
			c0.6,1.5,1.8,2.4,3.3,2.9c0.5,0.1,0.5,0.3,0.3,0.7c-1,1.4-2.3,2.4-3.9,2.9c-1.7,0.6-3.4,0.8-5.1,1c-1.2,0.1-2.4,0.1-3.5,0.1
			c-0.4,0-0.4-0.1-0.3-0.4c0.6-1.5,0.5-1.5,2.2-1.3c0.6,0.1,1.2,0.3,1.7,0.4c1,0.3,1.3,0.1,1.3-1c0-1.5,0-2.9,0-4.4
			c0-1.8,0.1-3.6,0-5.5c-0.1-1.5,0.2-2.9,0.8-4.2c0.1-0.3,0.2-0.6,0.3-0.9c0.3-0.9,0.6-1.6,1.6-1.9c0.9-0.3,0.9-0.6,0.7-1.5
			C31.6,35,31.4,34.6,31.4,34.2z"/>
		<path class="st5" d="M31.3,10.6c-0.8-1.5-2-2.6-3.4-3.4c-2.2-1.3-4.6-2.1-7.2-2.5c-1.4-0.2-2.8-0.3-4.2,0c0.4-0.8,1.1-1.3,1.9-1.6
			c1.6-0.6,3.2-0.6,4.9-0.4c2.6,0.3,5,1.1,7.3,2.4c2.7,1.5,4.1,4,4.6,7c0.4,2.4,0.3,4.9,0,7.3c-0.1,0.4-0.1,0.6-0.6,0.4
			c-0.7-0.2-0.8-0.5-0.8-1.2c0-1.7,0.1-3.4-0.2-5.1c-0.2-0.9-0.5-1.8-1.2-2.5C32,10.8,31.7,10.6,31.3,10.6z"/>
		<path class="st6" d="M22.8,21.5c0.3-0.1,0.5,0,0.6,0.3c0.8,4,5.8,5.6,8.8,2.7c0,0,0.1,0,0.2-0.1c-0.2,4.7-4.7,8.9-9.5,8.7
			c0-1.4,0-2.7,0-4.1c1-0.1,2-0.4,2.9-1c0.2-0.1,0.4-0.2,0.3-0.4c0-0.2-0.3-0.2-0.5-0.2s-0.4,0-0.5,0c-0.8,0-1.5,0-2.3-0.1
			C22.8,25.5,22.8,23.5,22.8,21.5z"/>
		<path class="st7" d="M22.8,21.5c0,2,0,3.9,0,5.9c-0.9,0-1.8,0-2.7,0.1c-0.2,0-0.4,0-0.5,0.2c-0.1,0.3,0.2,0.3,0.3,0.4
			c0.9,0.5,1.8,0.8,2.8,0.9c0,1.4,0,2.7,0,4.1c-5.7,0-9.4-4.9-9.4-8.8c0.6,0.5,1.1,0.9,1.7,1.2c3,1.3,6.3-0.4,7.1-3.7
			C22.4,21.6,22.4,21.4,22.8,21.5z"/>
		<path class="st8" d="M17.2,24.7c-2.2,0-3.9-1.7-3.9-3.9s1.7-3.9,3.9-3.9s3.9,1.7,3.9,3.9S19.4,24.7,17.2,24.7z M17.8,19.5
			c-0.8,0-2,1.1-2.1,1.8c0,0.3,0.1,0.6,0.4,0.7s0.6,0.1,0.8-0.2c0.2-0.2,0.3-0.5,0.5-0.7c0.3-0.4,0.6-0.4,0.9,0
			c0.2,0.2,0.3,0.5,0.5,0.7c0.2,0.3,0.5,0.3,0.8,0.2c0.3-0.1,0.4-0.4,0.4-0.7C19.9,20.6,18.6,19.5,17.8,19.5z"/>
		<path class="st6" d="M33.2,46.2c0-2.4,2.2-4.2,4.6-3.7c0.7,0.2,1.2,0.6,1.4,1.3c0.4,1.8,0.2,3.6-0.5,5.3c-0.4,0.9-1.2,1.2-2.3,0.9
			C34.5,49.7,33.2,48.1,33.2,46.2z"/>
		<path class="st9" d="M10.3,19.4c0.1-2.2-0.1-4.7,0.5-7.1c0.5-2.1,1.8-3.8,3.5-5.1C14.5,7,14.6,7,14.6,7.3c0.1,1.1,0.3,2.3,0.7,3.3
			c0.1,0.3,0,0.4-0.2,0.6c-1.9,1.1-2.8,2.7-3,4.9c-0.1,1-0.1,2-0.1,3c0,0.4-0.1,0.6-0.5,0.6c-0.2,0-0.5,0.1-0.7,0.3
			C10.3,20.4,10.1,20.1,10.3,19.4z"/>
		<path class="st10" d="M28,19.4c-1.1,0.1-1.7,0.9-2.2,1.7c-0.2,0.3-0.1,0.7,0.2,0.9c0.3,0.2,0.7,0.1,0.9-0.2c0.9-1.1,0.9-1.1,1.9,0
			c0.3,0.3,0.6,0.4,0.9,0.2c0.3-0.2,0.4-0.6,0.2-0.9c-0.3-0.5-0.7-1-1.3-1.4c0.2-0.1,0.4-0.1,0.6,0c0.9,0.2,1.7,0.3,2.6,0.2
			c0.3,0,0.5,0.1,0.5,0.4c0.3,2.2-1.4,4.2-3.5,4.4c-2.4,0.2-4.2-1.5-4.2-3.9c0-0.7,0.1-1.3,0.5-1.9c0.1-0.3,0.3-0.3,0.6-0.2
			C26.4,19,27.2,19.2,28,19.4z"/>
		<path class="st10" d="M27.4,33.6c-0.4,2.4-2.5,4.1-4.8,3.9c-2.2-0.1-4.3-1.9-4.3-3.9C21.3,34.9,24.4,34.9,27.4,33.6z"/>
		<path class="st9" d="M11.4,35.2c-0.4-0.6-0.5-1.3-0.6-1.9c-0.1-1.4,0.1-2.8,0.4-4.1c0.1-0.3,0.2-0.4,0.5-0.3c0,0,0,0,0.1,0
			c1.5-0.3,2,0.9,2.7,1.8c0.1,0.1,0.1,0.2,0.2,0.3c0.2,0.3,0.8,0.5,0.7,0.9c-0.1,0.3-0.6,0.4-1,0.7C13.4,33.3,12.3,34.2,11.4,35.2z"
			/>
		<path class="st9" d="M34.4,35c-0.9-1-2-1.9-3.2-2.7c-0.3-0.2-0.9-0.3-0.9-0.6c0-0.3,0.5-0.6,0.7-0.8c0.4-0.5,0.8-0.9,1.1-1.5
			c0.2-0.3,0.4-0.5,0.7-0.4c0.2,0,0.5,0.1,0.7,0c0.7-0.3,0.9,0.1,1,0.7c0.3,1.5,0.5,3.1,0.2,4.7C34.7,34.5,34.6,34.8,34.4,35z"/>
		<path class="st11" d="M14.1,34.6c-0.1,0.3-0.1,0.7-0.2,1c-0.2,0.5,0,0.9,0.4,1.1c0.2,0.1,0.3,0.2,0.5,0.3c1.4,0.3,1.2,1.7,1.6,2.7
			c0.1,0.3-0.2,0.3-0.4,0.2c-0.4-0.1-0.9-0.3-1.3-0.5c-1.2-0.4-2.4-0.7-3.7-0.7c-0.2,0-0.6,0-0.3-0.4C11.7,36.8,12.7,35.5,14.1,34.6
			L14.1,34.6z"/>
		<path class="st8" d="M9.4,23.9c0.1-1.1,0.7-2.1,2-2.8c0.4-0.2,0.5-0.1,0.5,0.3c0,1.4-0.1,2.7,0.2,4.1c0.1,0.5,0.2,1.1,0.4,1.6
			s0,0.5-0.4,0.4C10.6,27.4,9.4,25.9,9.4,23.9z"/>
		<path class="st10" d="M33.8,21c1.5,0.4,2.6,1.8,2.5,3.3c0,1.6-1.2,3-2.6,3.3c-0.2,0-0.7,0.3-0.5-0.3c0.7-1.9,0.6-3.9,0.6-5.9
			C33.7,21.3,33.7,21.2,33.8,21z"/>
		<path class="st8" d="M19.2,16c-2.2-0.8-4.2-0.4-5.9,1.2c-0.4-1.7,0.8-4.2,2.4-4.9c0.2-0.1,0.3-0.1,0.4,0.1
			c0.8,1.4,1.9,2.4,3.2,3.4C19.3,15.9,19.3,16,19.2,16z"/>
		<path class="st11" d="M12.2,54.1c1.3,0.1,2.3,0.3,3.3,0.6c0.6,0.2,1.1,0.2,1.7,0c1.2-0.3,2.4-0.5,3.5-0.6c0.3,0,0.5,0,0.6,0.4
			c0.1,0.3,0.2,0.5,0.2,0.8c0,0.5-0.1,0.8-0.7,0.8c-2.6-0.1-5.1-0.3-7.5-1.3c-0.3-0.1-0.6-0.3-0.8-0.4
			C12.5,54.3,12.4,54.2,12.2,54.1z"/>
		<path class="st8" d="M3,47.2c0-0.8,0.1-1.5,0.4-2.3c0.1-0.4,0.4-0.5,0.8-0.4c1.3,0.2,2.2,1.3,2.2,2.7C5.2,47.2,4.1,47.2,3,47.2z"
			/>
		<path class="st10" d="M3,47.2c1.1,0,2.2,0,3.3,0c0,1.4-0.9,2.3-2.2,2.6c-0.5,0.1-0.7-0.1-0.8-0.5C3.1,48.7,2.9,48,3,47.2z"/>
		<path class="st12" d="M27.6,36.5c0.7-1.1,1.2-2.2,1.2-3.4c0-0.1,0-0.3,0.2-0.3c0.3,0,0.5,0.1,0.6,0.3c0.3,0.8,0.5,1.6,0.7,2.5
			c0,0.2-0.1,0.3-0.2,0.3C29.4,36.2,28.6,36.3,27.6,36.5z"/>
		<path class="st13" d="M16.8,32.7c0.1,1.4,0.4,2.6,1.2,3.7c-0.9-0.1-1.7-0.3-2.5-0.6c-0.2-0.1-0.3-0.2-0.2-0.4
			c0.2-0.6,0.4-1.2,0.5-1.9C16,33.1,16.5,33.1,16.8,32.7z"/>
		<path class="st9" d="M26.5,17.6c1.4-1,3.9-0.7,4.8,0.6c0.1,0.1,0.2,0.2,0.1,0.3c-0.1,0.1-0.2,0.1-0.3,0.1c-0.7,0-1.4-0.1-2.1-0.3
			C28.3,18.1,27.4,17.9,26.5,17.6z"/>
		<path class="st12" d="M28.3,37.8c-0.2,0.6-0.5,1.2-0.7,1.8c-0.1,0.2-0.2,0.3-0.4,0.1c-1-0.5-2-0.8-3.1-1
			C25.5,38.1,26.8,37.8,28.3,37.8z"/>
		<path class="st13" d="M17.3,37.7c1.3,0.2,2.5,0.1,3.7,0.9c-0.8,0.2-1.6,0.3-2.3,0.5c-0.9,0.3-0.9,0.2-1.1-0.6
			C17.5,38.3,17.4,38,17.3,37.7z"/>
		<path class="st8" d="M22.8,20.1c-0.3,0.1-0.5,0-0.5-0.4c-0.3-1.2-0.9-2.3-1.8-3.1c0.8,0.4,1.6,0.7,2.4,1.1
			C22.9,18.5,22.8,19.3,22.8,20.1z"/>
		<path class="st10" d="M22.8,20.1c0-0.8,0-1.6,0-2.4c1.1,0.3,1.1,0.3,0.7,1.4c-0.1,0.2-0.1,0.4-0.2,0.6
			C23.4,20.1,23.2,20.2,22.8,20.1z"/>
		<path class="st8" d="M19.4,15.9c0,0.1,0.1,0.1,0.1,0.2c-0.1,0.1-0.2,0-0.2-0.1C19.3,16,19.3,15.9,19.4,15.9z"/>
		<path class="st11" d="M14.1,34.6C14.1,34.6,14.2,34.5,14.1,34.6C14.2,34.6,14.2,34.6,14.1,34.6L14.1,34.6z"/>
		<path class="st14" d="M22.8,29.1c-1-0.2-1.9-0.4-2.8-0.9c-0.2-0.1-0.4-0.2-0.3-0.4c0.1-0.2,0.3-0.2,0.5-0.2c0.9,0,1.8-0.1,2.7-0.1
			c0.8,0,1.5,0,2.3,0.1c0.2,0,0.4,0,0.5,0c0.2,0,0.4,0,0.5,0.2c0,0.2-0.2,0.3-0.3,0.4C24.8,28.7,23.9,29,22.8,29.1z"/>
		<path class="st0" d="M17.8,19.5c0.8,0,2,1.1,2.1,1.9c0,0.3-0.1,0.5-0.4,0.7c-0.3,0.1-0.6,0.1-0.8-0.2c-0.2-0.2-0.3-0.5-0.5-0.7
			c-0.3-0.4-0.6-0.4-0.9,0c-0.2,0.2-0.3,0.5-0.5,0.7c-0.2,0.3-0.5,0.3-0.8,0.2c-0.3-0.1-0.4-0.4-0.4-0.7
			C15.8,20.6,17,19.5,17.8,19.5z"/>
	</g>
	<g>
		<path class="st15" d="M41.5,50c-0.5-0.6-1.1-1.2-1.5-1.9c-3.1-5-1.1-11.6,4.2-14.2c1-0.5,2.1-0.8,3.2-0.9c0.1,0,0.1,0,0.2-0.1
			c0.6,0,1.2,0,1.8,0c0.4,0.1,0.8,0.1,1.2,0.2c3.9,0.8,7.2,4.2,7.8,8.1c0.5,3.3-0.4,6.2-2.7,8.7L55.6,50c-0.1,0.1-0.3,0.2-0.4,0.3
			c-0.8,0.7-1.7,1.3-2.7,1.7c-0.7,0.3-1.4,0.5-2.1,0.7c-0.3,0-0.7,0.1-1,0.1c-0.9,0.1-1.7,0-2.5-0.1c-0.1,0-0.1,0-0.2,0h-0.1
			c-0.7-0.2-1.5-0.4-2.2-0.7C43.2,51.4,42.3,50.8,41.5,50z M48.5,35.7c-3.9,0-7.1,3.2-7.1,7.1c0,4,3.2,7.2,7.1,7.2
			c4,0,7.1-3.2,7.1-7.1C55.6,38.9,52.4,35.7,48.5,35.7z"/>
		<path class="st16" d="M55.9,56.4c-0.1,0.1-0.1,0.2-0.2,0.3c-0.2,0.7-0.4,1.4-0.7,2c-0.1,0-0.1-0.1-0.1-0.1c-0.3-0.5-0.6-1-0.8-1.5
			c-0.7-1.2-1.4-2.4-2.1-3.6c-0.1-0.1-0.1-0.2,0.1-0.3c1.2-0.5,2.3-1.1,3.3-1.9c0.2-0.2,0.4-0.4,0.6-0.5c0.5,0.7,0.9,1.5,1.3,2.2
			c0.6,1,1.1,2,1.7,2.9c-0.7-0.1-1.4-0.3-2-0.4c-0.8-0.2-0.8-0.2-1,0.6C55.8,56.2,55.7,56.3,55.9,56.4z"/>
		<path class="st16" d="M41,56.4c-0.6,0.1-1.1,0.2-1.7,0.3c-0.2,0-0.5,0.1-0.7,0.1c0-0.2,0.1-0.3,0.2-0.4c0.1-0.3,0.3-0.5,0.4-0.8
			c0.7-1.3,1.4-2.5,2.2-3.8c0.1-0.2,0.2-0.2,0.3-0.1c0.8,0.6,1.7,1.1,2.7,1.4c0.5,0.2,1,0.4,1.6,0.4c-1,1.7-2,3.4-2.9,5.1
			c0,0,0,0-0.1,0.1c0-0.1-0.1-0.1-0.1-0.2c-0.2-0.7-0.5-1.5-0.7-2.2C42.1,56.1,42,56,41.8,56C41.6,56.3,41.3,56.3,41,56.4z"/>
		<path class="st17" d="M46,53.7c-0.5-0.1-1-0.2-1.6-0.4c-1-0.3-1.9-0.8-2.7-1.4c-0.2-0.1-0.2-0.1-0.3,0.1c-0.7,1.3-1.4,2.5-2.2,3.8
			c-0.1,0.3-0.3,0.5-0.4,0.8c-0.1,0.1-0.2,0.3-0.2,0.4c-0.2,0.1-0.5,0.1-0.7,0.2c-0.1,0-0.2,0-0.3-0.1s-0.1-0.2,0-0.3
			c0.2-0.4,0.4-0.7,0.6-1.1c1-1.8,2-3.6,3.1-5.3c0-0.1,0.1-0.1,0.1-0.2c0.9,0.8,1.8,1.5,2.8,2c0.7,0.3,1.4,0.6,2.2,0.7h0.1
			C46.4,53,46.2,53.4,46,53.7z"/>
		<path class="st17" d="M56,50.8c-0.3,0.1-0.4,0.3-0.6,0.5c-1,0.8-2.1,1.5-3.3,1.9c-0.2,0.1-0.2,0.2-0.1,0.3
			c0.7,1.2,1.4,2.4,2.1,3.6c0.3,0.5,0.6,1,0.8,1.5c0,0.1,0.1,0.1,0.1,0.1c0,0.2-0.1,0.4-0.2,0.6c0,0.2-0.1,0.3-0.3,0.3
			s-0.2-0.1-0.3-0.2c-0.3-0.6-0.6-1.1-1-1.7c-1-1.7-1.9-3.4-2.9-5.1c0.7-0.2,1.4-0.4,2.1-0.7c1-0.4,1.9-1,2.7-1.7
			c0.1-0.1,0.3-0.2,0.4-0.3C55.7,50.2,55.8,50.5,56,50.8z"/>
		<path class="st18" d="M41,56.4c0.3-0.1,0.6-0.2,0.9-0.2c0.2,0,0.3,0.1,0.4,0.3c0.2,0.7,0.5,1.5,0.7,2.2c0,0.1,0,0.1,0.1,0.2
			c-0.1,0.3-0.3,0.5-0.4,0.8c-0.1,0.1-0.2,0.1-0.3,0.1c-0.2,0-0.2-0.2-0.2-0.3c-0.2-0.8-0.5-1.6-0.7-2.4c0-0.1-0.1-0.3-0.1-0.4
			C41.2,56.6,41.1,56.5,41,56.4z"/>
		<path class="st19" d="M55.9,56.4c-0.1-0.1,0-0.2,0-0.3c0.2-0.8,0.3-0.8,1-0.6c0.7,0.1,1.4,0.3,2,0.4c0.1,0.2,0.2,0.4,0.3,0.6
			c0.1,0.1,0.1,0.3,0,0.4c-0.1,0.2-0.3,0.1-0.4,0.1c-0.7-0.2-1.5-0.3-2.2-0.5C56.4,56.5,56.1,56.4,55.9,56.4z"/>
		<path class="st20" d="M48.5,35.7c3.9,0,7.1,3.2,7.1,7.1s-3.2,7.1-7.1,7.1c-4,0-7.1-3.2-7.1-7.2C41.3,38.9,44.5,35.7,48.5,35.7z
			 M42.8,45.4L42.8,45.4c0,0.1,0,0.2,0.1,0.3c0.4,0.8,0.9,1.5,1.6,2.1c1.4,1.2,3.1,1.6,4.9,1.4c1.7-0.3,3.1-1.1,4.2-2.6
			c0.3-0.3,0.5-0.7,0.6-1.1l0,0c0,0,0,0,0-0.1s0.1-0.2,0.1-0.3c0.4-1,0.5-2.1,0.3-3.2c-0.4-2.1-1.5-3.7-3.5-4.7
			c-1.1-0.6-2.3-0.7-3.6-0.6c-1.3,0.2-2.5,0.7-3.5,1.7c-1.1,1-1.8,2.3-1.9,3.8C42.1,43.2,42.2,44.3,42.8,45.4
			C42.7,45.4,42.7,45.4,42.8,45.4z"/>
		<path class="st21" d="M42.7,45.4c-0.5-1-0.6-2.1-0.5-3.3c0.2-1.5,0.8-2.8,1.9-3.8c1-0.9,2.2-1.5,3.5-1.7c1.2-0.2,2.4,0,3.6,0.6
			c1.9,1,3.1,2.6,3.5,4.7c0.2,1.1,0.1,2.2-0.3,3.2c0,0.1-0.1,0.2-0.1,0.3c0,0,0,0,0,0.1l0,0l-0.1,0.1c-0.3,0.4-0.7,0.8-1.1,1.1
			c-1.6,1.2-3.3,1.7-5.3,1.5c-1.7-0.2-3.1-0.9-4.3-2.1C43.2,45.9,43,45.7,42.7,45.4C42.8,45.4,42.8,45.4,42.7,45.4L42.7,45.4z
			 M46,45.7c0,0.5,0.1,0.6,0.5,0.4c0.6-0.3,1.2-0.6,1.8-0.9c0.2-0.1,0.3-0.1,0.5,0c0.6,0.3,1.1,0.6,1.7,0.9c0.1,0.1,0.3,0.2,0.4,0.1
			c0.2-0.1,0.1-0.3,0.1-0.4c-0.1-0.6-0.2-1.3-0.3-1.9c0-0.2,0-0.3,0.2-0.5c0.5-0.5,0.9-1,1.4-1.4c0.1-0.1,0.2-0.2,0.2-0.3
			s-0.2-0.2-0.3-0.2c-0.6-0.1-1.2-0.2-1.7-0.3c-0.3,0-0.5,0-0.7-0.4c-0.3-0.6-0.6-1.2-0.9-1.7c-0.1-0.1-0.1-0.3-0.3-0.3
			s-0.2,0.1-0.3,0.3c-0.3,0.6-0.6,1.2-0.9,1.8c-0.1,0.1-0.2,0.2-0.3,0.3c-0.7,0.1-1.3,0.2-2,0.3c-0.2,0-0.3,0.1-0.4,0.2
			c-0.1,0.2,0.1,0.3,0.2,0.4c0.4,0.4,0.8,0.8,1.2,1.2c0.3,0.3,0.3,0.6,0.3,0.9C46.2,44.6,46.1,45.2,46,45.7z"/>
		<path class="st15" d="M42.8,45.4c0.2,0.2,0.4,0.5,0.7,0.7c1.2,1.2,2.6,1.9,4.3,2.1c2,0.2,3.7-0.3,5.3-1.5c0.4-0.3,0.8-0.7,1.1-1.1
			l0.1-0.1c-0.1,0.4-0.4,0.8-0.6,1.1c-1,1.4-2.4,2.3-4.2,2.6S46,49,44.6,47.8c-0.7-0.6-1.2-1.3-1.6-2.1
			C42.8,45.6,42.7,45.5,42.8,45.4z"/>
		<path class="st15" d="M42.7,45.4L42.7,45.4L42.7,45.4z"/>
		<path class="st15" d="M54.2,45.4L54.2,45.4L54.2,45.4z"/>
		<path class="st22" d="M46,45.7c0.1-0.5,0.2-1,0.3-1.6c0.1-0.4,0.1-0.7-0.3-0.9c-0.4-0.4-0.8-0.8-1.2-1.2c-0.1-0.1-0.2-0.2-0.2-0.4
			c0.1-0.2,0.2-0.2,0.4-0.2c0.7-0.1,1.3-0.2,2-0.3c0.2,0,0.3-0.1,0.3-0.3c0.3-0.6,0.6-1.2,0.9-1.8c0.1-0.1,0.1-0.2,0.3-0.3
			c0.2,0,0.2,0.1,0.3,0.3c0.3,0.6,0.6,1.1,0.9,1.7c0.1,0.3,0.4,0.3,0.7,0.4c0.6,0.1,1.2,0.2,1.7,0.3c0.2,0,0.3,0.1,0.3,0.2
			c0,0.1,0,0.3-0.2,0.3c-0.5,0.4-1,0.9-1.4,1.4c-0.1,0.1-0.2,0.3-0.2,0.5c0.1,0.6,0.2,1.2,0.3,1.9c0,0.1,0.1,0.3-0.1,0.4
			c-0.2,0.1-0.3,0-0.4-0.1c-0.6-0.3-1.1-0.6-1.7-0.9c-0.2-0.1-0.3-0.1-0.5,0c-0.6,0.3-1.2,0.6-1.8,0.9C46.2,46.2,46,46.1,46,45.7z"
			/>
	</g>
</g>
</svg>
