<?xml version="1.0" encoding="utf-8"?>
<!-- Generator: Adobe Illustrator 24.2.1, SVG Export Plug-In . SVG Version: 6.00 Build 0)  -->
<svg version="1.1" id="Layer_1" xmlns="http://www.w3.org/2000/svg" xmlns:xlink="http://www.w3.org/1999/xlink" x="0px" y="0px"
	 viewBox="0 0 200 200" style="enable-background:new 0 0 200 200;" xml:space="preserve">
<style type="text/css">
	.st0{fill:#0050AF;}
	.st1{fill:#EB494B;}
	.st2{fill:#005FE3;}
	.st3{fill:#FFFFFF;}
</style>
<g>
	<path class="st0" d="M1.4,97.9c3.8-3.7,8-6.8,12.1-10.2c6.2-5.2,12.4-10.3,18.6-15.4C54.1,54.1,76,35.9,98,17.8
		c2.3-1.9,2.7-1.9,5-0.1c20.4,16.9,40.7,33.7,61.1,50.6c11.1,9.2,22.2,18.3,33.2,27.5c0.4,0.4,0.9,0.7,1.3,1.1
		c1.1,1,1.3,2.1,0.3,3.2c-0.9,1-2,1.1-3.1,0.3c-0.7-0.5-1.4-1.1-2.1-1.7c-8.7-7.1-17.3-14.3-26-21.4c-0.3-0.3-0.7-0.6-1-0.9
		c-21.5-17.8-43-35.5-64.4-53.3c-1.5-1.3-2.3-1.1-3.8,0.1c-13.2,11-26.4,21.9-39.6,32.9c-8.5,7.1-17.1,14.2-25.6,21.3
		c-8.7,7.1-17.3,14.3-26,21.4c-0.3,0.3-0.7,0.6-1,0.9c-2.2,1.8-2.7,1.8-4.8,0.2C1.4,99.2,1.4,98.5,1.4,97.9z"/>
	<path class="st1" d="M166.7,76.5c-21.5-17.8-43-35.5-64.4-53.3c-1.5-1.3-2.3-1.1-3.8,0.1c-13.2,11-26.4,21.9-39.6,32.9
		c-8.5,7.1-17.1,14.2-25.6,21.3c0,0.4,0,0.8,0,1.2c0,30.9,0,61.9,0,92.8c0,0.5-0.1,1-0.1,1.5c7.2-0.1,14.4,0.3,21.6-0.2
		c0.4,0.4,1,0.3,1.5,0.3c10,0,20,0,30,0c0.5,0,1,0.1,1.5-0.3c3.6,0.2,7.2,0.4,10.7-0.1c0-16.7,0-33.4,0-50.2c0-2.2,0.8-2.9,2.9-2.9
		c13.9,0,27.7,0,41.6,0c2.4,0,3,0.9,2.8,3.9c0,12.8,0,25.6,0.1,38.4c0,3.6,0,7.2,0,10.8c1.2,0.4,2.5,0.2,3.8,0.2
		c6-0.1,12,0.2,18.1-0.1c0-20.4,0-40.8,0-61.1c0-11.4,0-22.8,0-34.2C167.4,77.1,167.1,76.8,166.7,76.5z M100,104.2
		C86.5,103.9,74.2,93,74.4,77.8c0.2-14.6,11.7-26,26.1-25.9c15.7,0.1,25.9,12.6,26.1,26.4C126.1,93.1,114.3,104.5,100,104.2z"/>
	<path class="st0" d="M33.2,172.9c7.2-0.1,14.4,0.3,21.6-0.2c0.4,0.4,1,0.3,1.5,0.3c10,0,20,0,30,0c0.5,0,1,0.1,1.5-0.3
		c3.6,0.2,7.2,0.4,10.7-0.1c1.3,0,2.6,0,4,0c14.4,0,28.9,0,43.3,0c1.2,0.5,2.5,0.2,3.8,0.2c6-0.1,12,0.2,18.1-0.1
		c3.2,0,6.4,0.1,9.7,0.1c1.2,0,1.7,0.3,1.7,1.6c-0.1,3.2-0.1,6.5,0,9.7c0,1-0.3,1.4-1.3,1.3c-0.3,0-0.6,0-1,0
		c-50.8,0-101.6,0-152.4,0c-1.8,0-2.5-0.3-2.3-2.3c0.2-2.9,0.1-5.8,0-8.7c0-1.2,0.3-1.7,1.6-1.7C26.7,173,29.9,172.9,33.2,172.9z"/>
	<path class="st2" d="M145.8,172.7c-14.4,0-28.9,0-43.3,0c0-15.2,0-30.3,0-45.5c0-3.1,0.6-3.8,3.7-3.8c13.2,0,26.4,0,39.6,0
		c0,12.8,0,25.6,0.1,38.4C145.8,165.5,145.8,169.1,145.8,172.7z"/>
	<path class="st0" d="M126.6,78.3c-0.5,14.8-12.3,26.2-26.6,25.9C86.5,103.9,74.2,93,74.4,77.8c0.2-14.6,11.7-26,26.1-25.9
		C116.3,52.1,126.5,64.6,126.6,78.3z M98.1,66.3c0-2.8,0-5.5,0-8.3c0-1.1-0.3-1.3-1.4-1.1c-8.6,1.4-16.2,9.1-17.4,17.7
		c-0.1,1,0.2,1.2,1.1,1.2c5.5,0,10.9,0,16.4,0c1,0,1.4-0.3,1.3-1.3C98.1,71.7,98.1,69,98.1,66.3z M102.8,66.3c0,2.6,0.1,5.2,0,7.7
		c0,1.3,0.2,1.8,1.7,1.8c5.3-0.1,10.6-0.1,15.8,0c1.2,0,1.5-0.2,1.3-1.5c-1.6-8.7-8.6-15.8-17.3-17.4c-1.2-0.2-1.5,0.1-1.5,1.2
		C102.8,60.8,102.8,63.5,102.8,66.3z M98.1,89.9c0-2.7,0-5.4,0-8.1c0-0.9-0.2-1.4-1.3-1.4c-5.5,0-10.9,0-16.4,0
		c-1.1,0-1.2,0.3-1.1,1.4c1.4,8.7,8.6,15.9,17.3,17.4c1.4,0.2,1.5-0.2,1.5-1.3C98.1,95.2,98.1,92.6,98.1,89.9z M102.8,89.9
		c0,2.7,0,5.4,0,8.1c0,0.9,0,1.4,1.2,1.2c8.6-1.2,16.3-8.9,17.6-17.6c0.1-1-0.1-1.2-1-1.2c-5.5,0-11,0-16.4,0
		c-1.2,0-1.4,0.5-1.4,1.5C102.8,84.6,102.8,87.2,102.8,89.9z"/>
	<path class="st0" d="M145.7,123.5c-13.2,0-26.4,0-39.6,0c-3.1,0-3.7,0.7-3.7,3.8c0,15.2,0,30.3,0,45.5c-1.3,0-2.6,0-4,0
		c0-16.7,0-33.4,0-50.2c0-2.1,0.8-2.9,2.9-2.9c13.9,0,27.7,0,41.6,0C145.3,119.6,145.9,120.5,145.7,123.5z"/>
	<path class="st3" d="M98.1,66.3c0,2.7,0,5.4,0,8.1c0,1-0.3,1.3-1.3,1.3c-5.5,0-10.9,0-16.4,0c-0.9,0-1.2-0.2-1.1-1.2
		c1.2-8.6,8.8-16.3,17.4-17.7c1-0.2,1.4,0.1,1.4,1.1C98.1,60.8,98.1,63.6,98.1,66.3z"/>
	<path class="st3" d="M102.8,66.3c0-2.7,0-5.4,0-8.1c0-1.1,0.3-1.4,1.5-1.2c8.7,1.5,15.7,8.6,17.3,17.4c0.2,1.3-0.1,1.5-1.3,1.5
		c-5.3,0-10.6-0.1-15.8,0c-1.4,0-1.7-0.5-1.7-1.8C102.8,71.4,102.8,68.8,102.8,66.3z"/>
	<path class="st3" d="M98.1,89.9c0,2.6,0,5.3,0,7.9c0,1.1-0.1,1.5-1.5,1.3c-8.7-1.5-15.8-8.7-17.3-17.4c-0.2-1,0-1.4,1.1-1.4
		c5.5,0,10.9,0,16.4,0c1.1,0,1.3,0.4,1.3,1.4C98.1,84.5,98.1,87.2,98.1,89.9z"/>
	<path class="st3" d="M102.8,89.9c0-2.6,0-5.3,0-7.9c0-1,0.2-1.5,1.4-1.5c5.5,0.1,11,0,16.4,0c0.9,0,1.2,0.2,1,1.2
		c-1.2,8.6-9,16.3-17.6,17.6c-1.2,0.2-1.3-0.3-1.2-1.2C102.8,95.3,102.8,92.6,102.8,89.9z"/>
</g>
</svg>
