<svg width="26" height="25" viewBox="0 0 26 25" fill="none" xmlns="http://www.w3.org/2000/svg">
<path d="M25.8948 21.6076L24.8077 17.5603L20.4722 1.35802C20.3434 0.888603 20.0344 0.489035 19.6126 0.246207C19.1907 0.00337998 18.69 -0.0630685 18.2194 0.0613125L14.1721 1.14845C14.071 1.17405 13.974 1.21373 13.8839 1.26633C13.7211 0.994822 13.4908 0.770089 13.2153 0.614009C12.9399 0.457928 12.6287 0.375816 12.3122 0.375665H8.12078C7.746 0.373542 7.37982 0.487971 7.07294 0.703116C6.76605 0.487971 6.39988 0.373542 6.0251 0.375665H1.83372C1.34739 0.375665 0.880976 0.568861 0.537086 0.912751C0.193196 1.25664 0 1.72306 0 2.20939V23.1662C0 23.6526 0.193196 24.119 0.537086 24.4629C0.880976 24.8068 1.34739 25 1.83372 25H6.0251C6.39988 25.0021 6.76605 24.8877 7.07294 24.6725C7.37982 24.8877 7.746 25.0021 8.12078 25H12.3122C12.7985 25 13.2649 24.8068 13.6088 24.4629C13.9527 24.119 14.1459 23.6526 14.1459 23.1662V8.1297L18.298 23.6378C18.4043 24.0288 18.6363 24.374 18.9582 24.6202C19.2801 24.8663 19.674 24.9998 20.0793 25C20.2385 24.9975 20.3969 24.9755 20.5508 24.9345L24.5981 23.8473C25.0665 23.7214 25.466 23.415 25.709 22.9953C25.952 22.5755 26.0188 22.0765 25.8948 21.6076ZM15.6783 7.80225L20.2365 6.58413L23.0918 17.2066L18.5337 18.4248L15.6783 7.80225ZM14.4209 2.7988C14.4545 2.73656 14.5108 2.68965 14.5781 2.66782L18.6254 1.58068H18.6909C18.7478 1.58197 18.803 1.60007 18.8496 1.6327C18.8963 1.66533 18.9322 1.71104 18.9529 1.76406L19.8304 5.06476L15.2723 6.28288L14.3947 2.99527C14.3788 2.9288 14.3881 2.85876 14.4209 2.7988ZM8.12078 1.94743H12.3122C12.3816 1.94743 12.4483 1.97503 12.4974 2.02416C12.5465 2.07328 12.5741 2.13991 12.5741 2.20939V18.189H7.85882V2.20939C7.85882 2.13991 7.88642 2.07328 7.93555 2.02416C7.98467 1.97503 8.05131 1.94743 8.12078 1.94743ZM1.83372 1.94743H6.0251C6.09457 1.94743 6.1612 1.97503 6.21033 2.02416C6.25946 2.07328 6.28706 2.13991 6.28706 2.20939V5.61488H1.57176V2.20939C1.57176 2.13991 1.59936 2.07328 1.64849 2.02416C1.69762 1.97503 1.76425 1.94743 1.83372 1.94743ZM6.0251 23.4282H1.83372C1.76425 23.4282 1.69762 23.4006 1.64849 23.3515C1.59936 23.3024 1.57176 23.2357 1.57176 23.1662V7.18664H6.28706V23.1662C6.28706 23.2357 6.25946 23.3024 6.21033 23.3515C6.1612 23.4006 6.09457 23.4282 6.0251 23.4282ZM12.3122 23.4282H8.12078C8.05131 23.4282 7.98467 23.4006 7.93555 23.3515C7.88642 23.3024 7.85882 23.2357 7.85882 23.1662V19.7608H12.5741V23.1662C12.5741 23.2357 12.5465 23.3024 12.4974 23.3515C12.4483 23.4006 12.3816 23.4282 12.3122 23.4282ZM24.1921 22.328L20.1448 23.4151C20.1112 23.425 20.076 23.4282 20.0413 23.4243C20.0065 23.4204 19.9729 23.4096 19.9424 23.3925C19.9118 23.3754 19.8851 23.3524 19.8636 23.3248C19.8421 23.2972 19.8264 23.2655 19.8173 23.2317L18.9398 19.9441L23.4979 18.726L24.3754 22.0136C24.3853 22.0463 24.3883 22.0807 24.3842 22.1146C24.3802 22.1485 24.3693 22.1812 24.3521 22.2106C24.3349 22.2401 24.3118 22.2658 24.2843 22.2859C24.2567 22.3061 24.2254 22.3204 24.1921 22.328Z" fill="#0E5799"/>
<mask id="mask0_619_1296" style="mask-type:alpha" maskUnits="userSpaceOnUse" x="0" y="0" width="26" height="25">
<path d="M25.8948 21.6076L24.8077 17.5603L20.4722 1.35802C20.3434 0.888603 20.0344 0.489035 19.6126 0.246207C19.1907 0.00337998 18.69 -0.0630685 18.2194 0.0613125L14.1721 1.14845C14.071 1.17405 13.974 1.21373 13.8839 1.26633C13.7211 0.994822 13.4908 0.770089 13.2153 0.614009C12.9399 0.457928 12.6287 0.375816 12.3122 0.375665H8.12078C7.746 0.373542 7.37982 0.487971 7.07294 0.703116C6.76605 0.487971 6.39988 0.373542 6.0251 0.375665H1.83372C1.34739 0.375665 0.880976 0.568861 0.537086 0.912751C0.193196 1.25664 0 1.72306 0 2.20939V23.1662C0 23.6526 0.193196 24.119 0.537086 24.4629C0.880976 24.8068 1.34739 25 1.83372 25H6.0251C6.39988 25.0021 6.76605 24.8877 7.07294 24.6725C7.37982 24.8877 7.746 25.0021 8.12078 25H12.3122C12.7985 25 13.2649 24.8068 13.6088 24.4629C13.9527 24.119 14.1459 23.6526 14.1459 23.1662V8.1297L18.298 23.6378C18.4043 24.0288 18.6363 24.374 18.9582 24.6202C19.2801 24.8663 19.674 24.9998 20.0793 25C20.2385 24.9975 20.3969 24.9755 20.5508 24.9345L24.5981 23.8473C25.0665 23.7214 25.466 23.415 25.709 22.9953C25.952 22.5755 26.0188 22.0765 25.8948 21.6076ZM15.6783 7.80225L20.2365 6.58413L23.0918 17.2066L18.5337 18.4248L15.6783 7.80225ZM14.4209 2.7988C14.4545 2.73656 14.5108 2.68965 14.5781 2.66782L18.6254 1.58068H18.6909C18.7478 1.58197 18.803 1.60007 18.8496 1.6327C18.8963 1.66533 18.9322 1.71104 18.9529 1.76406L19.8304 5.06476L15.2723 6.28288L14.3947 2.99527C14.3788 2.9288 14.3881 2.85876 14.4209 2.7988ZM8.12078 1.94743H12.3122C12.3816 1.94743 12.4483 1.97503 12.4974 2.02416C12.5465 2.07328 12.5741 2.13991 12.5741 2.20939V18.189H7.85882V2.20939C7.85882 2.13991 7.88642 2.07328 7.93555 2.02416C7.98467 1.97503 8.05131 1.94743 8.12078 1.94743ZM1.83372 1.94743H6.0251C6.09457 1.94743 6.1612 1.97503 6.21033 2.02416C6.25946 2.07328 6.28706 2.13991 6.28706 2.20939V5.61488H1.57176V2.20939C1.57176 2.13991 1.59936 2.07328 1.64849 2.02416C1.69762 1.97503 1.76425 1.94743 1.83372 1.94743ZM6.0251 23.4282H1.83372C1.76425 23.4282 1.69762 23.4006 1.64849 23.3515C1.59936 23.3024 1.57176 23.2357 1.57176 23.1662V7.18664H6.28706V23.1662C6.28706 23.2357 6.25946 23.3024 6.21033 23.3515C6.1612 23.4006 6.09457 23.4282 6.0251 23.4282ZM12.3122 23.4282H8.12078C8.05131 23.4282 7.98467 23.4006 7.93555 23.3515C7.88642 23.3024 7.85882 23.2357 7.85882 23.1662V19.7608H12.5741V23.1662C12.5741 23.2357 12.5465 23.3024 12.4974 23.3515C12.4483 23.4006 12.3816 23.4282 12.3122 23.4282ZM24.1921 22.328L20.1448 23.4151C20.1112 23.425 20.076 23.4282 20.0413 23.4243C20.0065 23.4204 19.9729 23.4096 19.9424 23.3925C19.9118 23.3754 19.8851 23.3524 19.8636 23.3248C19.8421 23.2972 19.8264 23.2655 19.8173 23.2317L18.9398 19.9441L23.4979 18.726L24.3754 22.0136C24.3853 22.0463 24.3883 22.0807 24.3842 22.1146C24.3802 22.1485 24.3693 22.1812 24.3521 22.2106C24.3349 22.2401 24.3118 22.2658 24.2843 22.2859C24.2567 22.3061 24.2254 22.3204 24.1921 22.328Z" fill="#699BF7"/>
</mask>
<g mask="url(#mask0_619_1296)">
<path d="M14.2685 11.2368L13.9118 0.892094L16.5871 -0.713112L20.8677 -1.06982L29.2504 24.4351L18.3707 27.2888L14.2685 11.2368Z" fill="#E83B3B"/>
</g>
</svg>
