<svg width="21" height="33" viewBox="0 0 21 33" fill="none" xmlns="http://www.w3.org/2000/svg">
<path d="M17.2885 0H3.32692C2.48536 0 1.67828 0.334305 1.08321 0.929373C0.488144 1.52444 0.153839 2.33152 0.153839 3.17308V29.8269C0.153839 30.6685 0.488144 31.4756 1.08321 32.0706C1.67828 32.6657 2.48536 33 3.32692 33H17.2885C17.7051 33 18.1178 32.9179 18.5027 32.7585C18.8877 32.599 19.2375 32.3653 19.5322 32.0706C19.8268 31.776 20.0605 31.4262 20.22 31.0412C20.3795 30.6562 20.4615 30.2436 20.4615 29.8269V3.17308C20.4615 2.75638 20.3795 2.34377 20.22 1.95879C20.0605 1.57382 19.8268 1.22402 19.5322 0.929373C19.2375 0.634725 18.8877 0.400998 18.5027 0.241536C18.1178 0.0820741 17.7051 0 17.2885 0V0ZM19.1923 29.8269C19.1923 30.3319 18.9917 30.8161 18.6347 31.1731C18.2776 31.5302 17.7934 31.7308 17.2885 31.7308H3.32692C2.82198 31.7308 2.33773 31.5302 1.98069 31.1731C1.62365 30.8161 1.42307 30.3319 1.42307 29.8269V3.17308C1.42307 2.66815 1.62365 2.18389 1.98069 1.82685C2.33773 1.46981 2.82198 1.26923 3.32692 1.26923H17.2885C17.7934 1.26923 18.2776 1.46981 18.6347 1.82685C18.9917 2.18389 19.1923 2.66815 19.1923 3.17308V29.8269Z" fill="#0E5799"/>
<path d="M2.69232 26.6536H17.9231V5.07666H2.69232V26.6536ZM3.96155 6.34589H16.6539V25.3844H3.96155V6.34589Z" fill="#0E5799"/>
<path d="M10.3077 30.4618C11.0087 30.4618 11.5769 29.8935 11.5769 29.1926C11.5769 28.4916 11.0087 27.9233 10.3077 27.9233C9.60671 27.9233 9.03845 28.4916 9.03845 29.1926C9.03845 29.8935 9.60671 30.4618 10.3077 30.4618Z" fill="#EB494B"/>
<path d="M12.8461 2.53857H7.76923V3.80781H12.8461V2.53857Z" fill="#EB494B"/>
</svg>
