<?xml version="1.0" encoding="utf-8"?>
<!-- Generator: Adobe Illustrator 24.2.1, SVG Export Plug-In . SVG Version: 6.00 Build 0)  -->
<svg version="1.1" id="Layer_1" xmlns="http://www.w3.org/2000/svg" xmlns:xlink="http://www.w3.org/1999/xlink" x="0px" y="0px"
	 viewBox="0 0 200 200" style="enable-background:new 0 0 200 200;" xml:space="preserve">
<style type="text/css">
	.st0{fill:#0050AF;}
	.st1{fill:#B8E672;}
	.st2{fill:#005FE3;}
	.st3{fill:#FEFEFD;}
</style>
<g>
	<circle class="st0" cx="97.9" cy="100.9" r="95.9"/>
	<path class="st1" d="M1,100c0.6,2.5,0.7,4.9,0,7.4C1,104.9,1,102.5,1,100z"/>
	<g>
		<path class="st2" d="M1.2,100c0.2-5.1,0.5-10.2,0.9-15.3c1.2-13.1,3.3-25.9,7.4-38.4c2.5-7.7,5.7-15.1,10.8-21.5
			c5.5-7,13-11.1,21.1-14.2c16.2-6.3,33.1-8.5,50.3-9.3c13.6-0.6,27.1,0.1,40.5,2.3c8,1.3,15.8,2.9,23.4,5.8
			c0.1,0.8,0.1,1.5,0.2,2.3c2.6,12,2.3,24,0.4,36.1c-2.2,13.6-6.9,26.4-13.2,38.6c-0.4,0.8-1.1,1.5-1,2.5c-9.8,0-19.6,0-29.4,0.1
			c-1.7,0-2-0.5-2-2.1c0.1-11.7,0.1-23.5,0-35.2c0-7.9-8.2-13.3-15.4-10.1c-4.8,2.2-6.8,6.1-6.8,11.3c0.1,11.2,0,22.5,0.1,33.7
			c0,1.9-0.4,2.4-2.3,2.4c-11.3-0.1-22.6-0.1-33.9,0c-6.7,0-11.7,4.3-12.1,10.2c-0.5,6.8,4.5,12,11.6,12.1c11.6,0,23.2,0,34.8,0
			c1,0,1.9-0.2,1.9,1.4c0,12.3,0,24.6,0,37c-0.1-0.4-0.3-0.7-0.3-1.1c0.1-2.2-0.7-1.6-2-0.9c-9.4,6.1-19.4,11.1-29.9,14.9
			c-12.7,4.6-25.8,7.6-39.4,8c-0.7,0-1.4,0-2,0.5c-2.7-4-4.5-8.4-6.1-12.9C2.4,139.5,0.6,119.7,1.2,100z"/>
		<path class="st3" d="M110.7,148.8c-0.4,4.6-2.6,8.1-6.9,9.8c-4.2,1.7-8.2,1-11.6-2c-2.1-1.9-3.2-4.3-3.6-7c0-12.3-0.1-24.6,0-37
			c0-1.6-0.9-1.4-1.9-1.4c-11.6,0-23.2,0-34.8,0c-7.1,0-12.1-5.3-11.6-12.1c0.4-6,5.4-10.2,12.1-10.2c11.3,0,22.6-0.1,33.9,0
			c1.9,0,2.3-0.5,2.3-2.4c-0.1-11.2,0-22.5-0.1-33.7c0-5.2,1.9-9.2,6.8-11.3c7.2-3.2,15.4,2.1,15.4,10.1c0.1,11.7,0,23.5,0,35.2
			c0,1.6,0.3,2.1,2,2.1c9.8-0.1,19.6-0.1,29.4-0.1c2.2,0.1,4.4,0.2,6.5,0.3c5.9,0.2,10.5,5,10.4,11.2c-0.1,6.2-5.1,10.9-11.6,10.9
			c-6.2,0.1-12.5,0-18.7,0c-0.7,0-1.4,0-2.1,0.1c-4.9,0-9.8,0-14.7-0.1c-0.9,0-1.2,0.3-1.2,1.2C110.7,124.6,110.7,136.7,110.7,148.8
			z"/>
		<path class="st0" d="M199,112.4c-0.5,13.8-2,27.5-5.9,40.8c-1.9,6.6-4.5,13-8.2,18.9c-5.3,8.5-13.4,13.4-22.4,17
			c-14.3,5.7-29.3,8.1-44.5,9.3c-2.2,0.2-4.5,0-6.6,0.8H87.8c-0.4-0.7-1-0.4-1.6-0.4c-8.4-0.6-16.8-1.5-25.1-3.1
			c-10.9-2.1-21.4-4.9-31.2-10.3c-6.3-3.4-11.5-8-15-14.4c0.6-0.5,1.3-0.5,2-0.5c13.6-0.3,26.7-3.3,39.4-8
			c10.5-3.8,20.5-8.9,29.9-14.9c1.2-0.8,2.1-1.3,2,0.8c0,0.4,0.2,0.7,0.3,1.1c0.4,2.8,1.5,5.2,3.6,7c3.5,3,7.5,3.7,11.6,2
			c4.3-1.7,6.5-5.2,6.9-9.8c0-12.1,0-24.2-0.1-36.4c0-0.9,0.3-1.2,1.2-1.2c4.9,0.1,9.8,0.1,14.7,0.1c0.7,0,1.4-0.1,2.1-0.1
			c6.2,0,12.5,0.1,18.7,0c6.5-0.1,11.5-4.7,11.6-10.9c0.1-6.2-4.5-11-10.4-11.2c-2.2-0.1-4.4-0.2-6.5-0.3c-0.1-1,0.6-1.7,1-2.5
			c6.3-12.2,11-25,13.2-38.6c1.9-12,2.2-24.1-0.4-36.1c-0.2-0.7-0.2-1.5-0.2-2.3c1.3,0.5,2.7,0.9,4,1.4c13.2,4.9,22.6,13.7,28,26.9
			c5.2,12.6,8.1,25.8,9.9,39.2C198.9,88.7,199.4,100.5,199,112.4z"/>
	</g>
</g>
</svg>
