<?xml version="1.0" encoding="iso-8859-1"?>
<!-- Generator: Adobe Illustrator 19.0.0, SVG Export Plug-In . SVG Version: 6.00 Build 0)  -->
<svg version="1.1" id="Capa_1" xmlns="http://www.w3.org/2000/svg" xmlns:xlink="http://www.w3.org/1999/xlink" x="0px" y="0px"
	 viewBox="0 0 512 512" style="enable-background:new 0 0 512 512;" xml:space="preserve">
<path id="SVGCleanerId_0" style="fill:#0288D1;" d="M149.333,21.333c-11.76,0-21.333,9.573-21.333,21.333v384
	c0,11.76,9.573,21.333,21.333,21.333h256c11.76,0,21.333-9.573,21.333-21.333V121.75L326.208,21.333H149.333z"/>
<path style="fill:#303C42;" d="M405.333,469.333h-256c-23.531,0-42.667-19.135-42.667-42.667v-384
	C106.667,19.135,125.802,0,149.333,0h181.292c2.833,0,5.542,1.125,7.542,3.125l106.708,106.667c2,2,3.125,4.708,3.125,7.542v309.333
	C448,450.198,428.865,469.333,405.333,469.333z"/>
<g>
	<path id="SVGCleanerId_0_1_" style="fill:#0288D1;" d="M149.333,21.333c-11.76,0-21.333,9.573-21.333,21.333v384
		c0,11.76,9.573,21.333,21.333,21.333h256c11.76,0,21.333-9.573,21.333-21.333V121.75L326.208,21.333H149.333z"/>
</g>
<path style="fill:#303C42;" d="M362.667,512h-256C83.135,512,64,492.865,64,469.333v-384c0-23.531,19.135-42.667,42.667-42.667
	h181.292c2.833,0,5.542,1.125,7.542,3.125l106.708,106.667c2,2,3.125,4.708,3.125,7.542v309.333
	C405.333,492.865,386.198,512,362.667,512z"/>
<path style="fill:#F2F2F2;" d="M106.667,64c-11.76,0-21.333,9.573-21.333,21.333v384c0,11.76,9.573,21.333,21.333,21.333h256
	c11.76,0,21.333-9.573,21.333-21.333V164.417L283.542,64H106.667z"/>
<path style="fill:#303C42;" d="M309.333,213.333H160c-17.646,0-32,14.354-32,32V416c0,17.646,14.354,32,32,32h149.333
	c17.646,0,32-14.354,32-32V245.333C341.333,227.688,326.979,213.333,309.333,213.333z"/>
<g>
	<path style="fill:#FFCA28;" d="M320,245.333v32h-42.667v-42.667h32C315.219,234.667,320,239.448,320,245.333z"/>
	<rect x="213.333" y="234.667" style="fill:#FFCA28;" width="42.667" height="42.667"/>
	<path style="fill:#FFCA28;" d="M160,234.667h32v42.667h-42.667v-32C149.333,239.448,154.115,234.667,160,234.667z"/>
	<path style="fill:#FFCA28;" d="M149.333,416v-32H192v42.667h-32C154.115,426.667,149.333,421.885,149.333,416z"/>
	<rect x="213.333" y="384" style="fill:#FFCA28;" width="42.667" height="42.667"/>
	<path style="fill:#FFCA28;" d="M309.333,426.667h-32v-53.333c0-5.896-4.771-10.667-10.667-10.667H149.333v-64H320V416
		C320,421.885,315.219,426.667,309.333,426.667z"/>
</g>
<linearGradient id="SVGID_1_" gradientUnits="userSpaceOnUse" x1="-35.8921" y1="631.171" x2="-28.7475" y2="624.0265" gradientTransform="matrix(21.3333 0 0 -21.3333 996.3334 13791.667)">
	<stop  offset="0" style="stop-color:#000000;stop-opacity:0.1"/>
	<stop  offset="1" style="stop-color:#000000;stop-opacity:0"/>
</linearGradient>
<path style="fill:url(#SVGID_1_);" d="M333.208,224.112l-0.056,0.061c5.029,5.654,8.181,13.016,8.181,21.16V416
	c0,17.646-14.354,32-32,32H160c-8.719,0-16.616-3.523-22.393-9.198l51.865,51.865h173.195c11.76,0,21.333-9.573,21.333-21.333
	V274.902L333.208,224.112z"/>
<linearGradient id="SVGID_2_" gradientUnits="userSpaceOnUse" x1="-31.272" y1="635.9053" x2="-24.0701" y2="628.7044" gradientTransform="matrix(21.3333 0 0 -21.3333 996.3334 13791.667)">
	<stop  offset="0" style="stop-color:#000000;stop-opacity:0.1"/>
	<stop  offset="1" style="stop-color:#000000;stop-opacity:0"/>
</linearGradient>
<path style="fill:url(#SVGID_2_);" d="M426.667,426.667V176.958l-24.375-24.375c1.934,1.987,3.042,4.634,3.042,7.417v288
	C417.094,448,426.667,438.427,426.667,426.667z"/>
<linearGradient id="SVGID_3_" gradientUnits="userSpaceOnUse" x1="-45.6721" y1="638.7055" x2="-24.4191" y2="628.7945" gradientTransform="matrix(21.3333 0 0 -21.3333 996.3334 13791.667)">
	<stop  offset="0" style="stop-color:#FFFFFF;stop-opacity:0.2"/>
	<stop  offset="1" style="stop-color:#FFFFFF;stop-opacity:0"/>
</linearGradient>
<path style="fill:url(#SVGID_3_);" d="M444.875,109.792L338.167,3.125c-2-2-4.708-3.125-7.542-3.125H149.333
	c-23.531,0-42.667,19.135-42.667,42.667C83.135,42.667,64,61.802,64,85.333v384C64,492.865,83.135,512,106.667,512h256
	c23.531,0,42.667-19.135,42.667-42.667c23.531,0,42.667-19.135,42.667-42.667V117.333C448,114.5,446.875,111.792,444.875,109.792z"
	/>
<g>
</g>
<g>
</g>
<g>
</g>
<g>
</g>
<g>
</g>
<g>
</g>
<g>
</g>
<g>
</g>
<g>
</g>
<g>
</g>
<g>
</g>
<g>
</g>
<g>
</g>
<g>
</g>
<g>
</g>
</svg>
