<?xml version="1.0" encoding="utf-8"?>
<!-- Generator: Adobe Illustrator 24.2.1, SVG Export Plug-In . SVG Version: 6.00 Build 0)  -->
<svg version="1.1" id="Layer_1" xmlns="http://www.w3.org/2000/svg" xmlns:xlink="http://www.w3.org/1999/xlink" x="0px" y="0px"
	 viewBox="0 0 200 200" style="enable-background:new 0 0 200 200;" xml:space="preserve">
<style type="text/css">
	.st0{fill:#0050AF;}
	.st1{fill:#0050C2;}
	.st2{fill:#005FE3;}
	.st3{fill:#FFFFFF;}
	.st4{fill:#EB494B;}
	.st5{fill:#F4565E;}
</style>
<rect x="96.6" y="1.9" class="st0" width="9" height="195.9"/>
<g>
	<path class="st1" d="M100.2,1.5c20.3,0,40.5,0,60.8,0c0.1,0.3,0.3,0.3,0.6,0.4c8.8,2.3,13.7,8.7,13.7,17.7c0,53.7,0,107.4,0,161.1
		c0,10.2-7.5,17.7-17.7,17.7c-8.7,0-17.4,0-26.1,0c-10.4,0-20.8,0-31.1-0.1c0-7.6,0-15.3,0-22.9c7.8,0,15.6,0,23.5-0.1
		c7.3-0.1,13.9-5.1,16.1-12c1.2-3.8,0.6-7.6,0.8-11.4c2,0,4,0,5.9,0c3.2-0.1,5.6-2.5,5.6-5.8c0-3.3-2.4-5.7-5.6-5.8c-2,0-4,0-5.9,0
		c0-3.8,0-7.7,0-11.5c2,0,4,0,5.9,0c3.2-0.1,5.6-2.5,5.6-5.8c0-3.3-2.4-5.7-5.6-5.8c-2,0-4,0-5.9,0c0-1.8,0-3.6,0-5.4
		c0-10.1-7.5-17.6-17.7-17.7c-7.6,0-15.1,0-22.7-0.1C100.2,63.3,100.2,32.4,100.2,1.5z M105.9,42.1c0,3.6,0,7.3,0,10.9
		c0,3.9,2.3,6.5,5.7,6.5c3.4,0,5.8-2.6,5.8-6.5c0-7.4,0-14.7,0-22.1c0-3.9-2.4-6.5-5.8-6.4c-3.3,0-5.7,2.6-5.7,6.4
		C105.9,34.7,105.9,38.4,105.9,42.1z M152.1,42.1c0-3.6,0-7.3,0-10.9c0-3.9-2.3-6.5-5.7-6.5c-3.4,0-5.8,2.6-5.8,6.5
		c0,7.4,0,14.7,0,22.1c0,3.9,2.4,6.5,5.8,6.4c3.3,0,5.7-2.6,5.7-6.4C152.1,49.5,152.1,45.8,152.1,42.1z"/>
	<path class="st2" d="M100.2,198.4c-10.7,0-21.4,0-32.1,0.1c-8.3,0-16.7,0-25,0c-8.6,0-15-4.9-17.3-13c-0.5-1.7-0.6-3.4-0.6-5.1
		c0-30.3,0-60.6,0-90.9c0-4.5,2.2-6.7,6.7-6.7c1.5,0,3.6,0.5,4.4-0.3c1.1-0.9,0.3-3,0.3-4.6c0.1-1.7-0.1-3.5,0-5.2
		c0.1-1.1-0.2-1.6-1.5-1.5c-1.5,0.1-3.1,0.1-4.6,0c-3-0.2-5.4-2.3-5.4-5.2c-0.1-7-0.4-14,0.2-20.9c0.3-4.4,2.4-8.1,5.4-11.1
		c8.9-8.9,17.8-17.7,26.6-26.7c2.8-2.8,6.3-4.4,10-5.6c10.9,0,21.8,0,32.7,0c0,30.9,0,61.7,0,92.6c0,0,0,0.1,0,0.1
		c-7.8,0-15.6-0.2-23.4,0c-8.2,0.2-14.3,5.3-16.4,13.1c-0.9,3.2-0.5,6.6-0.6,9.9c-1.9,0-3.8,0-5.8,0c-3.3,0.1-5.7,2.6-5.7,5.8
		c0,3.2,2.4,5.6,5.7,5.8c1.9,0.1,3.8,0,5.8,0c0,3.8,0,7.7,0,11.5c-1.9,0-3.8,0-5.8,0c-3.3,0.1-5.7,2.6-5.7,5.8
		c0,3.2,2.4,5.6,5.7,5.8c1.9,0.1,3.8,0,5.8,0c0,2,0,4,0,5.9c0.2,9.8,7.2,17.1,17,17.4c7.8,0.2,15.6,0,23.4,0l0,0.1
		C100.2,183.1,100.2,190.7,100.2,198.4z M82.9,42.1c0-3.6,0-7.3,0-10.9c0-3.9-2.3-6.5-5.7-6.5c-3.4,0-5.8,2.6-5.8,6.5
		c0,7.4,0,14.7,0,22.1c0,3.9,2.4,6.5,5.8,6.4c3.3,0,5.7-2.6,5.7-6.4C82.9,49.5,82.9,45.8,82.9,42.1z"/>
	<path class="st3" d="M140.6,117.3c2,0,4,0,5.9,0c3.2,0.1,5.6,2.5,5.6,5.8c0,3.3-2.4,5.7-5.6,5.8c-2,0-4,0-5.9,0c-7,0-14.1,0-21.1,0
		c-1.5,0-2.1,0.4-2,2c0.1,2.6,0.1,5.1,0,7.7c-0.1,1.6,0.5,2,2,2c7-0.1,14.1,0,21.1,0c2,0,4,0,5.9,0c3.2,0.1,5.6,2.5,5.6,5.8
		c0,3.3-2.4,5.7-5.6,5.8c-2,0-4,0-5.9,0c-13.5,0-26.9,0-40.4,0c0-3.8,0-7.7,0-11.5c1.5,0,2.9,0,4.4,0c1,0,1.4-0.4,1.4-1.4
		c0-2.9,0-5.9,0-8.8c0-1-0.4-1.4-1.4-1.4c-1.5,0-2.9,0-4.4,0c0-3.8,0-7.7,0-11.5C113.7,117.3,127.1,117.3,140.6,117.3z"/>
	<path class="st4" d="M100.2,151.9c13.5,0,26.9,0,40.4,0c-0.2,3.8,0.4,7.7-0.8,11.4c-2.2,6.9-8.8,11.9-16.1,12
		c-7.8,0.1-15.6,0.1-23.5,0.1c0,0,0-0.1,0-0.1C100.2,167.5,100.2,159.7,100.2,151.9C100.2,151.9,100.2,151.9,100.2,151.9z"/>
	<path class="st4" d="M140.6,117.3c-13.5,0-26.9,0-40.4,0c0,0,0,0,0,0c0-7.7,0-15.3,0-23c0,0,0-0.1,0-0.1c7.6,0,15.1,0,22.7,0.1
		c10.2,0,17.7,7.5,17.7,17.7C140.6,113.7,140.6,115.5,140.6,117.3z"/>
	<path class="st3" d="M105.9,42.1c0-3.7,0-7.4,0-11.1c0-3.7,2.4-6.3,5.7-6.4c3.4,0,5.8,2.6,5.8,6.4c0,7.4,0,14.7,0,22.1
		c0,3.9-2.4,6.5-5.8,6.5c-3.4,0-5.7-2.6-5.7-6.5C105.9,49.4,105.9,45.8,105.9,42.1z"/>
	<path class="st3" d="M152.1,42.1c0,3.7,0,7.4,0,11.1c0,3.7-2.4,6.3-5.7,6.4c-3.4,0-5.8-2.6-5.8-6.4c0-7.4,0-14.7,0-22.1
		c0-3.9,2.4-6.5,5.8-6.5c3.4,0,5.7,2.6,5.7,6.5C152.1,34.8,152.1,38.4,152.1,42.1z"/>
	<path class="st4" d="M140.6,140.3c-7,0-14.1,0-21.1,0c-1.5,0-2.1-0.4-2-2c0.1-2.6,0.1-5.1,0-7.7c-0.1-1.6,0.5-2,2-2
		c7,0.1,14.1,0,21.1,0C140.6,132.7,140.6,136.5,140.6,140.3z"/>
	<path class="st3" d="M100.2,117.3c0,3.8,0,7.7,0,11.5l0,0c-1.5,0-2.9,0-4.4,0c-1,0-1.4,0.4-1.4,1.4c0,2.9,0,5.9,0,8.8
		c0,1,0.4,1.4,1.4,1.4c1.5,0,2.9,0,4.4,0l0,0c0,3.8,0,7.7,0,11.5c0,0,0,0,0,0c-13.5,0-27,0-40.4,0c-1.9,0-3.8,0-5.8,0
		c-3.3-0.1-5.7-2.6-5.7-5.8c0-3.2,2.4-5.6,5.7-5.8c1.9-0.1,3.8,0,5.8,0c7,0,14.1,0,21.1,0c1.5,0,2.1-0.4,2-2c-0.1-2.6-0.1-5.1,0-7.7
		c0.1-1.6-0.5-2-2-2c-7,0.1-14.1,0-21.1,0c-1.9,0-3.8,0-5.8,0c-3.3-0.1-5.7-2.6-5.7-5.8c0-3.2,2.4-5.6,5.7-5.8c1.9-0.1,3.8,0,5.8,0
		C73.2,117.3,86.7,117.3,100.2,117.3L100.2,117.3z"/>
	<path class="st5" d="M59.8,151.9c13.5,0,27,0,40.4,0c0,7.8,0,15.6,0,23.4c-7.8,0-15.6,0.2-23.4,0c-9.8-0.3-16.8-7.6-17-17.4
		C59.8,155.9,59.8,153.9,59.8,151.9z"/>
	<path class="st5" d="M100.2,117.3c-13.5,0-27,0-40.4,0c0.1-3.3-0.3-6.7,0.6-9.9c2.1-7.8,8.3-12.9,16.4-13.1c7.8-0.2,15.6,0,23.4,0
		C100.2,101.9,100.2,109.6,100.2,117.3z"/>
	<path class="st3" d="M82.9,42.1c0,3.7,0,7.4,0,11.1c0,3.7-2.4,6.3-5.7,6.4c-3.4,0-5.8-2.6-5.8-6.4c0-7.4,0-14.7,0-22.1
		c0-3.9,2.4-6.5,5.8-6.5c3.4,0,5.7,2.6,5.7,6.5C82.9,34.8,82.9,38.4,82.9,42.1z"/>
	<path class="st5" d="M59.8,128.8c7,0,14.1,0,21.1,0c1.5,0,2.1,0.4,2,2c-0.1,2.6-0.1,5.1,0,7.7c0.1,1.6-0.5,2-2,2
		c-7-0.1-14.1,0-21.1,0C59.8,136.5,59.8,132.7,59.8,128.8z"/>
	<path class="st4" d="M100.2,128.8c1.5,0,2.9,0,4.4,0c1,0,1.4,0.4,1.4,1.4c0,2.9,0,5.9,0,8.8c0,1-0.4,1.4-1.4,1.4
		c-1.5,0-2.9,0-4.4,0c0,0,0,0,0,0C100.2,136.5,100.2,132.7,100.2,128.8L100.2,128.8z"/>
	<path class="st5" d="M100.2,128.8c0,3.8,0,7.7,0,11.5c-1.5,0-2.9,0-4.4,0c-1,0-1.4-0.4-1.4-1.4c0-2.9,0-5.9,0-8.8
		c0-1,0.4-1.4,1.4-1.4C97.2,128.8,98.7,128.8,100.2,128.8z"/>
</g>
</svg>
