<?xml version="1.0" encoding="utf-8"?>
<!-- Generator: Adobe Illustrator 24.2.1, SVG Export Plug-In . SVG Version: 6.00 Build 0)  -->
<svg version="1.1" id="Layer_1" xmlns="http://www.w3.org/2000/svg" xmlns:xlink="http://www.w3.org/1999/xlink" x="0px" y="0px"
	 viewBox="0 0 60 60" style="enable-background:new 0 0 60 60;" xml:space="preserve">
<style type="text/css">
	.st0{fill:#524999;}
	.st1{fill:#9ACD1C;}
	.st2{fill:#FDCC71;}
	.st3{fill:#B8E546;}
	.st4{fill:#C9EB72;}
	.st5{fill:#534B97;}
	.st6{fill:#FE9101;}
	.st7{fill:#FEB42D;}
	.st8{fill:#FCCB6F;}
	.st9{fill:#FEFDFE;}
	.st10{fill:#5F55AE;}
	.st11{fill:#FDD892;}
	.st12{fill:#6A61B3;}
	.st13{fill:#FCE4BE;}
	.st14{fill:#514899;}
	.st15{fill:#453D83;}
</style>
<g>
	<path class="st0" d="M32.3,59.5c-1.6,0-3.1,0-4.7,0c-0.5-0.2-1-0.2-1.6-0.3c-6.4-0.9-12-3.6-16.7-8.2c-4.7-4.6-7.5-10.2-8.5-16.6
		c-0.1-0.6-0.1-1.3-0.3-1.9c0-1.6,0-3.2,0-4.8c0.2-0.1,0.1-0.3,0.1-0.4c0.2-2.3,0.7-4.6,1.5-6.8c1-2.8,2.3-5.4,4.1-7.8
		c0,2.1,0,4.1,0.2,6.2c0.2,2.4,0.6,4.7,1.2,7c0,0.2,0,0.3,0,0.5c-0.2,1-0.3,2-0.1,3c0.1,1,0.2,2,0.9,2.8c0,0.6,0.1,1.1,0.1,1.7l0,0
		c-0.2,0-0.3-0.2-0.4-0.3c-0.7-0.7-1.5-1.4-2.4-1.8c-0.4-0.2-1-0.6-1.4-0.3c-0.4,0.3-0.2,0.9-0.1,1.4c0.6,2.5,2,4.5,4.2,5.7
		c0.9,0.5,1.5,1.1,1.7,2c0.2,0.7,0.6,1.2,0.7,1.9c-0.3-0.1-0.5-0.3-0.8-0.4c-1-0.5-2-0.8-3.1-0.7c-0.4,0-0.7,0.1-0.5,0.6
		c0.1,0.2,0.1,0.4,0.2,0.5c1.5,2.8,3.8,4.4,7,4.7c0.3,0,0.6,0.1,0.8,0.4c0.9,1.1,2,2.2,3.1,3.1c0.1,0.1,0.3,0.2,0.3,0.4
		c-0.3,0-0.7,0-1-0.1c-1.1,0-2.2,0.1-3.2,0.6c-0.4,0.2-0.4,0.4-0.1,0.7c0.5,0.6,1.1,1,1.7,1.3c2.4,1.1,4.8,1.5,7.3,0.4
		c0.2-0.1,0.4,0,0.5,0.1c1,0.5,2.1,1,3.2,1.3c0.1,0,0.2,0,0.2,0.2c-0.1,0-0.2,0-0.3,0c-0.4,0-0.9,0.1-0.8,0.6c0,0.6,0.5,0.6,0.9,0.5
		c0.9-0.1,1.8-0.2,2.6-0.3c0.5-0.1,1-0.2,1.6-0.1c1,0.2,2.1,0.3,3.1,0.4c0.4,0,0.7-0.1,0.7-0.6c0-0.4-0.3-0.6-0.6-0.6
		c-0.2,0-0.3,0-0.5-0.1c0,0,0-0.1,0-0.1c1.2-0.4,2.4-0.9,3.5-1.5c0.1-0.1,0.3-0.1,0.4,0c1.8,0.9,3.7,0.7,5.6,0.2
		c1.3-0.3,2.4-0.9,3.4-1.9c0.3-0.4,0.3-0.6-0.1-0.8c-1-0.5-2.1-0.6-3.2-0.6c-0.3,0-0.7,0-1.1,0.1c0.1-0.2,0.2-0.2,0.2-0.3
		c1.2-1,2.4-2.2,3.4-3.4c0.2-0.2,0.4-0.2,0.6-0.2c3.2-0.3,5.5-1.9,7-4.7c0.6-1.1,0.5-1.3-0.9-1.2c-1.2,0.1-2.3,0.6-3.3,1.1
		c0-0.1,0-0.1,0-0.2c0.5-1,0.9-2,1.2-3c0.1-0.2,0.2-0.2,0.3-0.3c1.4-0.5,2.5-1.5,3.5-2.6c1-1.3,1.7-2.6,1.8-4.3
		c0-0.8-0.1-0.8-0.8-0.6c-1.1,0.3-1.9,1-2.7,1.7c-0.2,0.2-0.4,0.6-0.7,0.7l0,0c-0.1-0.6,0-1.2,0.1-1.7c0.2-0.2,0.4-0.5,0.5-0.8
		c0.4-1.1,0.5-2.3,0.5-3.5c0-0.7-0.1-1.3-0.2-2c0.7-2.3,1-4.7,1.2-7c0.2-2.1,0.2-4.1,0.2-6.2c0.1,0.1,0.1,0.1,0.2,0.2
		c3.5,4.9,5.4,10.4,5.5,16.5c0.2,6.7-1.7,12.8-5.7,18.2C48.9,54,42.4,57.9,34.3,59.2C33.6,59.3,33,59.2,32.3,59.5z"/>
	<path class="st1" d="M48.9,42.4c1-0.6,2.1-1.1,3.3-1.1c1.4-0.1,1.4,0.1,0.9,1.2c-1.5,2.8-3.8,4.4-7,4.7c-0.2,0-0.4,0-0.6,0.2
		c-1,1.2-2.2,2.4-3.4,3.4c-0.1,0-0.1,0.1-0.2,0.3c0.4,0,0.8,0,1.1-0.1c1.1,0,2.2,0.1,3.2,0.6c0.5,0.2,0.5,0.5,0.1,0.8
		c-0.9,1-2.1,1.6-3.4,1.9c-1.9,0.5-3.7,0.6-5.6-0.2c-0.2-0.1-0.3-0.1-0.4,0c-1.1,0.6-2.3,1-3.5,1.5c0,0,0,0.1,0,0.1
		c0.1,0.1,0.3,0.1,0.5,0.1c0.4,0,0.6,0.2,0.6,0.6c0,0.4-0.3,0.6-0.7,0.6c-1.1-0.1-2.1-0.1-3.1-0.4c-0.5-0.1-1.1,0-1.6,0.1
		c-0.9,0.1-1.8,0.2-2.6,0.3c-0.4,0-0.9,0-0.9-0.5c0-0.6,0.4-0.6,0.8-0.6c0.1,0,0.2,0,0.3,0c0-0.2-0.1-0.2-0.2-0.2
		c-1.1-0.4-2.2-0.8-3.2-1.3c-0.2-0.1-0.3-0.2-0.5-0.1c-2.5,1.1-4.9,0.7-7.3-0.4c-0.7-0.3-1.2-0.8-1.7-1.3c-0.3-0.3-0.2-0.5,0.1-0.7
		c1-0.5,2.1-0.7,3.2-0.6c0.3,0,0.7,0,1,0.1c0.1-0.3-0.2-0.3-0.3-0.4c-1.1-1-2.2-2-3.1-3.1c-0.2-0.3-0.4-0.3-0.8-0.4
		c-3.2-0.3-5.5-1.9-7-4.7c-0.1-0.2-0.1-0.4-0.2-0.5c-0.2-0.5,0-0.6,0.5-0.6c1.1-0.1,2.1,0.3,3.1,0.7c0.3,0.1,0.5,0.3,0.8,0.4
		c0,0,0,0,0,0c0,0,0.1,0.1,0.1,0.1c0.3,0.2,0.4,0.7,0.8,0.5c0.3-0.1,0.4-0.3,0.5-0.6c0.5,0.7,0.8,1.5,1.5,2.3c-0.4-1.6-0.3-3,0-4.4
		c0.3-0.9,0.7-1.7,1.1-2.5c0.4-0.3,0.6-0.2,0.9,0.2c0.7,0.9,0.9,1.9,1.2,3c0.2,1.2,0.1,2.4-0.1,3.6c-0.2,0.8-0.4,1.6-0.9,2.2
		c-0.2,0.3-0.1,0.5,0.1,0.7c1.4,1.5,3,2.9,4.7,4c0.1,0.1,0.2,0.3,0.5,0.1c-1-1.3-1.6-2.8-2-4.4c0-1-0.2-2,0.3-3
		c0.6,0.1,1.1,0.5,1.5,0.9c0.9,0.8,1.4,1.8,2,2.8c0,0.1,0.1,0.1,0.1,0.2l0,0c0.3,1.2,0.7,2.3,0.7,3.5c-0.1,0.4-0.1,0.7-0.2,1.1
		c-0.1,0.4,0,0.5,0.3,0.7c1.4,0.7,2.8,1.1,4.3,1.6c0.2,0,0.4,0.1,0.6,0.1c0.9,0.3,1.8,0.1,2.6-0.2c1.6-0.3,3-0.9,4.4-1.6
		c0.2-0.1,0.2-0.2,0.2-0.4c-0.1-0.4-0.2-0.9-0.3-1.3c0-1.3,0.4-2.5,0.8-3.7c0.1-0.1,0.1-0.2,0.2-0.4c0.5-0.8,1-1.7,1.8-2.4
		c0.4-0.4,0.9-0.8,1.5-0.9c0.5,1,0.3,2,0.3,3c-0.4,1.6-0.9,3.1-1.9,4.5c2-1.2,3.8-2.7,5.3-4.4c0.1-0.1,0.1-0.2,0-0.4
		c-0.5-0.7-0.8-1.5-1-2.3c-0.2-1.2-0.3-2.4-0.1-3.6c0.2-1.1,0.5-2.1,1.2-3c0.2-0.3,0.5-0.5,0.8-0.1c0.6,0.7,0.9,1.6,1.2,2.4
		c0.2,1.4,0.3,2.9,0.1,4.3c0.6-0.7,0.9-1.5,1.4-2.2c0,0.3,0.2,0.6,0.5,0.7c0.3,0.1,0.5-0.2,0.6-0.4C48.7,42.6,48.7,42.6,48.9,42.4
		C48.8,42.5,48.9,42.5,48.9,42.4L48.9,42.4z"/>
	<path class="st2" d="M6.3,12.6c0.2-2.4,0.4-4.9,0.8-7.3c0.1-0.6,0.3-0.8,0.9-0.9c3.9-0.9,7.8-1.5,11.8-2c0.2,0,0.3,0,0.4-0.1
		c0.2,0.2,0.5,0,0.7,0c6-0.5,12-0.6,18.1,0c0.2,0,0.5,0.3,0.7,0c1.4,0.2,2.7,0.4,4.1,0.6c2.9,0.4,5.7,1,8.5,1.6
		c0.5,0.1,0.5,0.4,0.6,0.8c0.5,2.4,0.7,4.9,0.8,7.4c0,2.1,0,4.1-0.2,6.2c-0.2,2.4-0.6,4.7-1.2,7c-0.4-1-0.8-2.1-1.7-2.8
		c0.3-2.1,0.6-4.3,0.7-6.4c0.2-3.2,0-6.5-0.5-9.7c0-0.3-0.2-0.4-0.5-0.5c-2.4-0.5-4.8-1-7.3-1.3c0.1-0.2,0.1-0.4,0.2-0.7
		c0.1-0.2,0.2-0.4,0-0.6c-0.2-0.2-0.4,0-0.6,0c-1.1,0.5-2.3,0.5-3.4,0c-0.1,0-0.1,0-0.2-0.1c-0.4-0.1-0.5,0-0.4,0.4
		c0,0.1,0,0.2,0.1,0.3c-1.4-0.1-2.8-0.3-4.3-0.3c-1.7-0.1-3.3-0.1-5-0.1c-0.1,0-0.2,0-0.3,0c-3.8,0.1-7.6,0.3-11.4,0.8
		c-2.7,0.4-5.4,0.8-8,1.4C9.5,6.4,9.2,6.4,9.1,6.8c-0.5,3.2-0.7,6.4-0.5,9.6c0.1,2.2,0.4,4.4,0.8,6.6c-0.5,0.5-0.9,1-1.1,1.6
		c-0.2,0.4-0.3,0.8-0.5,1.2c-0.6-2.3-1-4.7-1.2-7C6.3,16.7,6.3,14.6,6.3,12.6z"/>
	<path class="st3" d="M48.8,42.5c-0.1,0.1-0.1,0.1-0.2,0.2c-0.2,0.2-0.3,0.5-0.6,0.4c-0.3-0.1-0.5-0.3-0.5-0.7c0.4-1,1-2,1.3-3.1
		c0.1-0.2,0.2-0.4-0.1-0.6c-0.4-0.3-0.7-0.7-1.1-1.1c-0.5-0.8-0.9-1.6-1.3-2.4c-0.1-0.3-0.2-0.6-0.2-0.8c-0.3-1.3-0.5-2.5-0.1-3.8
		c0.2-0.8,0.4-0.9,1.1-0.4c0.4,0.3,0.7,0.7,1.1,1c0.6,0.8,1,1.6,1.4,2.5c0.1,0.4,0.2,0.8,0.4,1.3c0.1-1.1,0.3-1.9,0.3-2.9
		c0,0,0-0.1,0-0.1c0.4,0.1,0.8,0.2,1.2,0c0,0.6-0.1,1.1-0.1,1.7c0,0,0,0,0,0c0.4-0.1,0.5-0.4,0.7-0.7c0.8-0.7,1.6-1.4,2.7-1.7
		c0.8-0.2,0.9-0.2,0.8,0.6c-0.1,1.6-0.8,3-1.8,4.3c-0.9,1.2-2,2.1-3.5,2.6c-0.2,0.1-0.3,0.1-0.3,0.3c-0.4,1-0.8,2-1.2,3
		C48.9,42.3,48.9,42.4,48.8,42.5c0.1-0.1,0.1-0.1,0.1-0.1C48.8,42.4,48.8,42.5,48.8,42.5z"/>
	<path class="st3" d="M12.5,42.4c0,0.3-0.2,0.6-0.5,0.6c-0.5,0.1-0.6-0.3-0.8-0.5c0-0.1,0-0.1-0.1-0.1c0,0,0,0,0,0
		c-0.1-0.7-0.6-1.2-0.7-1.9c-0.3-1-0.8-1.5-1.7-2c-2.2-1.2-3.6-3.2-4.2-5.7c-0.1-0.5-0.3-1.1,0.1-1.4c0.4-0.3,0.9,0.1,1.4,0.3
		c0.9,0.4,1.7,1.1,2.4,1.8c0.1,0.1,0.2,0.3,0.4,0.3c0,0,0,0,0,0c0,0,0,0,0,0c0.1-0.6,0-1.2-0.1-1.7c0.4,0.2,0.8,0.1,1.2,0
		c0,0,0,0.1,0,0.1c-0.1,0.9,0.1,1.8,0.4,2.7c0.1-0.4,0.2-0.8,0.3-1.1c0.4-0.9,0.8-1.7,1.4-2.5c0.4-0.4,0.8-0.9,1.4-1.2
		c0.3-0.2,0.5-0.2,0.7,0.2c0.3,0.8,0.4,1.7,0.3,2.6c-0.1,0.8-0.3,1.6-0.5,2.4c-0.4,0.8-0.8,1.6-1.3,2.4c-0.3,0.3-0.6,0.7-1,1
		c-0.3,0.2-0.3,0.4-0.2,0.8C11.6,40.4,12.1,41.4,12.5,42.4z"/>
	<path class="st4" d="M51.5,32.1c-0.4,0.2-0.8,0.1-1.2,0c-0.7-1-1-2.2-1.2-3.3c-0.1-0.8-0.1-1.7,0-2.5c0.2-1.2,0.5-2.4,1.5-3.3
		c0.9,0.8,1.2,1.8,1.7,2.8c0.1,0.7,0.2,1.3,0.2,2c0.1,1.2,0,2.4-0.5,3.5C51.9,31.6,51.8,31.9,51.5,32.1z"/>
	<path class="st4" d="M9.7,32.1c-0.4,0.1-0.8,0.2-1.2,0c-0.7-0.8-0.8-1.8-0.9-2.8c-0.1-1,0-2,0.1-3c0-0.2,0-0.3,0-0.5
		c0.2-0.4,0.3-0.8,0.5-1.2C8.5,24,9,23.5,9.4,23c0.5,0.4,0.8,0.9,1,1.5c0.5,1.4,0.6,2.8,0.5,4.3C10.7,29.9,10.5,31.1,9.7,32.1z"/>
	<path class="st5" d="M39.7,2.3c-0.2,0.3-0.5,0-0.7,0c-6-0.5-12-0.5-18.1,0c-0.2,0-0.5,0.2-0.7,0c1.9-0.8,3.9-1.2,5.9-1.5
		c4.4-0.6,8.7-0.2,12.9,1.1C39.2,2,39.5,2,39.7,2.3z"/>
	<path class="st6" d="M10.9,28.7c0.2-1.5,0-2.9-0.5-4.3c-0.2-0.6-0.5-1.1-1-1.5c-0.4-2.2-0.6-4.4-0.8-6.6c-0.2-3.2,0-6.4,0.5-9.6
		c0.1-0.4,0.3-0.5,0.6-0.5c2.7-0.6,5.3-1,8-1.4c3.8-0.5,7.6-0.7,11.4-0.8c0.1,0,0.2,0,0.3,0c-0.4,1.5-0.8,2.9-1.2,4.4
		c-0.5,0.1-0.9,0.1-1.4,0.3c-3.6,0.9-6.5,2.8-8.7,5.9c-1,0.4-2,0.8-2.9,1.3c-0.2,0.1-0.4,0.2-0.4,0.5c0,0.2,0.2,0.3,0.4,0.4
		c0.5,0.2,0.9,0.4,1.4,0.6c0,0.1,0,0.1,0,0.2c-1.2,2.9-1.3,5.9-0.6,8.9c-0.4,0.6-0.5,1.3,0,1.9c-0.4,1.8-0.8,3.6-1.2,5.5
		c-0.1,0.3,0,0.4,0.3,0.5c1.2,0.2,2.4,0.1,3.6,0c0.4,0,0.5-0.2,0.4-0.6c-0.1-0.5-0.3-0.9-0.2-1.4c0.4,0.2,0.6,0.6,0.9,0.8
		c0.7,0.8,1.5,1.3,2.4,1.9c0.5,0.3,0.9,0.7,1.5,0.7c-0.2,0.3,0.1,0.5,0.3,0.6c0.5,0.3,0.9,0.8,1.1,1.4c0.2,0.6,0.4,0.6,0.8,0.1
		c0.3-0.4,0.6-0.9,1.3-1c0.2,0.2,0.4,0.2,0.6,0.2c0.9,0.1,1.7,0.1,2.6,0.2c0,0.1,0.1,0.3,0.1,0.4c1.1,2.6,2.5,5.1,4.2,7.4
		c0.6,0.9,1.3,1.8,2.1,2.5c-0.1,0.1-0.1,0.2-0.2,0.4c-0.2,0.2-0.4,0.4-0.7,0.6c-1.8,1.6-3.7,3.1-5.7,4.4c-0.3,0.2-0.6,0.2-0.9,0
		c-1.6-1.1-3.2-2.2-4.7-3.5c-0.5-0.4-0.9-1-1.5-1.3c0,0,0,0,0,0c0-0.1-0.1-0.1-0.1-0.2c-0.5-1-1.1-2-2-2.8c-0.4-0.4-0.9-0.8-1.5-0.9
		c-0.9-1-1.7-2.2-2.6-3.3c-0.2-1.1-0.5-2.1-1.2-3c-0.3-0.3-0.5-0.5-0.9-0.2c-0.5-0.9-1-1.7-1.4-2.6c0.2-0.8,0.4-1.6,0.5-2.4
		c0.1-0.9,0-1.8-0.3-2.6c-0.1-0.4-0.3-0.4-0.7-0.2c-0.5,0.3-0.9,0.8-1.4,1.2C11.5,30.4,11.2,29.6,10.9,28.7z"/>
	<path class="st7" d="M28.3,8.6c0.4-1.5,0.8-2.9,1.2-4.4c1.7,0,3.3,0,5,0.1c1.4,0.1,2.8,0.2,4.3,0.3c0.4,0.9,0.6,1.8,0.2,2.7
		c-0.2,0.3-0.5,0.8-0.2,1.1c0.3,0.3,0.8,0,1.2-0.2c0.8-0.3,1.5-0.3,2.3,0c0.2,0.1,0.4,0.1,0.7,0.2c0.5,0.1,0.6,0,0.5-0.5
		C43.2,7.7,43.2,7.3,43,7c-0.3-0.7-0.2-1.3,0.1-1.9c2.5,0.2,4.9,0.7,7.3,1.3c0.3,0.1,0.4,0.2,0.5,0.5c0.5,3.2,0.7,6.4,0.5,9.7
		c-0.1,2.2-0.4,4.3-0.7,6.4c-1,0.8-1.3,2-1.5,3.3c-0.1,0.8-0.1,1.7,0,2.5c-0.3,0.8-0.6,1.7-0.9,2.5c-0.4-0.3-0.7-0.7-1.1-1
		c-0.7-0.5-0.9-0.5-1.1,0.4c-0.4,1.3-0.2,2.6,0.1,3.8c0.1,0.3,0.2,0.6,0.2,0.8c-0.5,0.9-1,1.7-1.5,2.6c-0.3-0.3-0.6-0.2-0.8,0.1
		c-0.7,0.9-1,1.9-1.2,3c-0.9,1.1-1.7,2.2-2.6,3.3c-0.6,0.1-1.1,0.5-1.5,0.9c-0.8,0.7-1.3,1.6-1.8,2.4c-0.8-0.7-1.4-1.6-2.1-2.5
		c-1.7-2.3-3.1-4.8-4.2-7.4c-0.1-0.1-0.1-0.3-0.1-0.4c1.2-0.1,2.3-0.3,3.4-0.6c2.3-0.7,4.3-1.8,6-3.5c4.1-3.6,5.5-10.5,3.3-15.6
		c0.5-0.2,0.9-0.4,1.4-0.6c0.2-0.1,0.5-0.2,0.5-0.5c0-0.3-0.3-0.4-0.5-0.5c-0.7-0.3-1.5-0.6-2.3-1c0.3-0.2,0.6-0.4,0.1-0.7
		c-0.6-0.4-1.1-0.9-1.3-1.7c-0.1-0.4-0.4-0.4-0.6-0.1c-0.1,0.1-0.2,0.2-0.2,0.3c-0.2,0-0.3-0.1-0.4-0.3C36.7,9.4,32.8,8.1,28.3,8.6z
		"/>
	<path class="st8" d="M23.3,48.1c0.6,0.3,1,0.8,1.5,1.3c1.5,1.3,3.1,2.4,4.7,3.5c0.3,0.2,0.6,0.2,0.9,0c2-1.3,3.9-2.8,5.7-4.4
		c0.2-0.2,0.4-0.4,0.7-0.6c-0.5,1.2-0.8,2.4-0.8,3.7c-0.4,0.3-0.8,0.6-1.1,0.9c-1.1,0.8-2.2,1.6-3.2,2.4c-0.9,0.3-1.7,0.5-2.6,0.2
		C28.8,55,28.6,55,28.4,55c0-0.2-0.1-0.2-0.2-0.3c-1.4-0.9-2.8-2-4.2-3C24,50.4,23.6,49.2,23.3,48.1z"/>
	<path class="st5" d="M19.4,47.3c0.4,1.6,0.9,3.1,2,4.4c-0.2,0.1-0.4-0.1-0.5-0.1c-1.7-1.2-3.3-2.5-4.7-4c-0.2-0.2-0.3-0.4-0.1-0.7
		c0.5-0.6,0.7-1.4,0.9-2.2C17.8,45.5,18.5,46.4,19.4,47.3z"/>
	<path class="st5" d="M43,44.6c0.2,0.8,0.5,1.7,1,2.3c0.1,0.1,0.1,0.3,0,0.4c-1.6,1.7-3.3,3.2-5.3,4.4c1-1.4,1.6-2.9,1.9-4.5
		C41.5,46.4,42.2,45.5,43,44.6z"/>
	<path class="st5" d="M12.5,42.4c-0.4-1-1-2-1.3-3c-0.1-0.3-0.1-0.5,0.2-0.8c0.4-0.3,0.7-0.6,1-1c0.5,0.9,1,1.8,1.6,2.6
		c-0.2,1.4-0.4,2.9,0,4.4C13.3,43.9,13,43.1,12.5,42.4z"/>
	<path class="st5" d="M47.6,37.7c0.4,0.4,0.7,0.7,1.1,1.1c0.2,0.2,0.1,0.4,0.1,0.6c-0.4,1.1-0.9,2.1-1.3,3.1
		c-0.5,0.7-0.8,1.5-1.4,2.2c0.3-1.4,0.2-2.9-0.1-4.3C46.6,39.5,47.1,38.5,47.6,37.7z"/>
	<path class="st8" d="M19.4,47.3c-0.9-0.8-1.6-1.8-2.4-2.7c0.2-1.2,0.3-2.4,0.1-3.6c0.9,1.1,1.7,2.2,2.6,3.3
		C19.3,45.2,19.4,46.2,19.4,47.3z"/>
	<path class="st8" d="M43,44.6c-0.8,0.9-1.5,1.9-2.4,2.7c0-1,0.1-2-0.3-3c0.9-1,1.7-2.2,2.6-3.3C42.7,42.2,42.8,43.4,43,44.6z"/>
	<path class="st8" d="M47.6,37.7c-0.5,0.9-1,1.8-1.6,2.6c-0.3-0.9-0.6-1.7-1.2-2.4c0.5-0.9,1-1.7,1.5-2.6
		C46.7,36.1,47.1,36.9,47.6,37.7z"/>
	<path class="st8" d="M14,40.3c-0.6-0.8-1.1-1.8-1.6-2.6c0.5-0.8,0.9-1.6,1.3-2.4c0.5,0.9,1,1.7,1.4,2.6
		C14.6,38.6,14.3,39.4,14,40.3z"/>
	<path class="st5" d="M24,51.6c1.4,1.1,2.7,2.1,4.2,3c0.1,0.1,0.2,0.1,0.2,0.3c-1.4-0.5-2.9-0.9-4.3-1.6c-0.3-0.2-0.4-0.3-0.3-0.7
		C23.9,52.3,23.9,52,24,51.6z"/>
	<path class="st5" d="M31.6,54.9c1.1-0.8,2.2-1.6,3.2-2.4c0.4-0.3,0.8-0.6,1.1-0.9c0.1,0.4,0.2,0.9,0.3,1.3c0,0.2,0,0.3-0.2,0.4
		C34.6,53.9,33.2,54.6,31.6,54.9z"/>
	<path class="st0" d="M11.1,42.4C11.2,42.4,11.2,42.5,11.1,42.4C11.2,42.5,11.1,42.5,11.1,42.4z"/>
	<path class="st8" d="M23.2,47.9c0,0.1,0.1,0.1,0.1,0.2C23.3,48,23.2,48,23.2,47.9z"/>
	<path class="st0" d="M48.8,42.5c0-0.1,0-0.1,0.1-0.1C48.9,42.5,48.8,42.5,48.8,42.5z"/>
	<path class="st9" d="M43.1,5.1C42.8,5.7,42.8,6.4,43,7c0.1,0.3,0.2,0.6,0.3,0.9c0.1,0.5,0,0.6-0.5,0.5c-0.2-0.1-0.4-0.1-0.7-0.2
		c-0.8-0.3-1.5-0.3-2.3,0c-0.4,0.1-0.9,0.5-1.2,0.2c-0.3-0.3,0.1-0.8,0.2-1.1c0.4-1,0.2-1.8-0.2-2.7c0-0.1,0-0.2-0.1-0.3
		c-0.1-0.4,0-0.5,0.4-0.4c0.1,0,0.2,0,0.2,0.1c1.1,0.5,2.2,0.5,3.4,0c0.2-0.1,0.4-0.2,0.6,0c0.2,0.2,0,0.4,0,0.6
		C43.2,4.7,43.2,4.9,43.1,5.1z"/>
	<path class="st8" d="M48.2,31.3c0.3-0.8,0.6-1.7,0.9-2.5c0.2,1.2,0.5,2.3,1.2,3.3c0,0,0,0.1,0,0.1c-0.2,0.5-0.5,1.1-0.7,1.6
		C49.2,32.9,48.7,32.1,48.2,31.3z"/>
	<path class="st5" d="M49.6,33.8c0.2-0.5,0.5-1.1,0.7-1.6c0.1,0.9-0.2,1.8-0.3,2.9C49.7,34.6,49.7,34.2,49.6,33.8z"/>
	<path class="st0" d="M51.4,33.8C51.4,33.8,51.4,33.8,51.4,33.8C51.4,33.8,51.4,33.8,51.4,33.8z"/>
	<path class="st8" d="M10.9,28.7c0.3,0.8,0.6,1.7,0.9,2.5c-0.6,0.8-1,1.7-1.4,2.5c-0.2-0.5-0.5-1.1-0.7-1.6c0,0,0-0.1,0-0.1
		C10.5,31.1,10.7,29.9,10.9,28.7z"/>
	<path class="st5" d="M9.8,32.2c0.2,0.5,0.5,1.1,0.7,1.6c-0.1,0.4-0.2,0.8-0.3,1.1C9.9,34,9.7,33.1,9.8,32.2z"/>
	<path class="st0" d="M8.6,33.8C8.6,33.8,8.6,33.8,8.6,33.8C8.6,33.8,8.6,33.8,8.6,33.8C8.6,33.8,8.6,33.8,8.6,33.8z"/>
	<path class="st10" d="M16.7,17.5c-0.5-0.2-0.9-0.4-1.4-0.6c-0.2-0.1-0.4-0.2-0.4-0.4c0-0.3,0.2-0.4,0.4-0.5c1-0.4,2-0.8,2.9-1.3
		c0.3-0.1,0.5-0.2,0.8-0.3c2.6-1.1,5.2-2.1,7.8-3.2c0,0.3-0.3,0.5-0.5,0.7c-1.1,1.1-1.2,2.6-0.3,3.9c0.4,0.6,0.9,1,1.5,1.4
		c2.1,1.4,4.4,2.1,6.8,2.6c0.7,0.2,1.5,0.1,2.2,0.4c-0.1,0.1-0.3,0.2-0.5,0.3c-1.4,0.6-2.8,1.1-4.2,1.7c-1.2,0.5-2.3,0.6-3.5,0.1
		c-0.6-0.2-1.1-0.5-1.7-0.7c-2.3-1-4.6-1.9-6.9-2.9c-0.7-0.3-1.5-0.7-2.3-0.9c-0.2-0.2-0.5-0.2-0.7-0.3
		C16.7,17.5,16.7,17.5,16.7,17.5z"/>
	<path class="st2" d="M40,33.1c-1.7,1.7-3.7,2.9-6,3.5c-1.1,0.3-2.3,0.5-3.4,0.6c-0.9,0-1.7,0-2.6-0.2c-0.2,0-0.5,0-0.6-0.2
		c0.7-0.5,0.7-0.6-0.1-1.1c-0.4-0.3-0.6-0.7-0.8-1.2C26.1,34,26,34,25.6,34.6c-0.4,0.7-1,1-1.8,1.2c-0.6-0.1-1-0.4-1.5-0.7
		c-0.9-0.5-1.7-1.1-2.4-1.9c0.3-0.2,0.5-0.5,0.8-0.7c0.7-0.5,1.3-1.1,2.1-1.4c0.2,0.1,0.4,0.1,0.6,0.2c1.6,0.5,3.3,1,5,1
		c0.6,0.1,1.3,0.1,1.9,0.1c2.3,0,4.6-0.5,6.8-1.3C38.3,31.5,39.2,32.3,40,33.1z"/>
	<path class="st11" d="M22.9,31c-0.8,0.2-1.5,0.9-2.1,1.4c-0.3,0.2-0.5,0.5-0.8,0.7c-0.4-0.2-0.5-0.7-0.9-0.8c0,0,0,0,0,0
		c0-0.1-0.1-0.1-0.1-0.2c-0.3-1.3-0.5-2.5-0.8-3.8c0.6-1,0.4-1.7-0.6-2.3c0-2.8,0-5.5,0-8.3c0.8,0.2,1.5,0.6,2.3,0.9
		c0,0.1,0,0.1,0,0.2c0.8,3.6,1.5,7.2,2.3,10.8C22.1,30.3,22.4,30.7,22.9,31z"/>
	<path class="st11" d="M26.8,11.2c-2.6,1.1-5.2,2.1-7.8,3.2c-0.3,0.1-0.5,0.2-0.8,0.3c2.1-3.1,5-5,8.7-5.9c0.5-0.1,0.9-0.2,1.4-0.3
		c4.5-0.5,8.5,0.9,11.8,4c0.1,0.1,0.2,0.3,0.4,0.3c-0.3,0.4-0.6,0.7-1.1,0.8c-2.5-1.1-5.1-2.1-7.6-3.2c-0.9-0.4-1.8-0.6-2.8-0.2
		C28.2,10.5,27.5,10.8,26.8,11.2z"/>
	<path class="st0" d="M18.1,28.4c0.3,1.3,0.5,2.5,0.8,3.8c0,0.1,0,0.2,0.1,0.2c0,0,0,0,0,0c0,0.5,0.1,0.9,0.2,1.4
		c0.1,0.4,0,0.6-0.4,0.6c-1.2,0.1-2.4,0.1-3.6,0c-0.3,0-0.4-0.1-0.3-0.5c0.4-1.8,0.8-3.6,1.2-5.5C16.9,29,17.2,29,18.1,28.4z"/>
	<path class="st9" d="M23.9,35.8c0.8-0.2,1.3-0.6,1.8-1.2c0.4-0.6,0.5-0.5,0.8,0.1c0.2,0.4,0.4,0.9,0.8,1.2c0.8,0.5,0.8,0.6,0.1,1.1
		c-0.7,0-0.9,0.5-1.3,1c-0.4,0.5-0.5,0.5-0.8-0.1c-0.2-0.6-0.6-1.1-1.1-1.4C23.9,36.3,23.7,36.1,23.9,35.8z"/>
	<path class="st11" d="M16.1,26.5c-0.8-3-0.6-6,0.6-8.9c0,0,0,0,0.1,0c0,2.8,0,5.7,0,8.5C16.5,26.2,16.3,26.3,16.1,26.5z"/>
	<path class="st12" d="M16.1,26.5c0.2-0.1,0.4-0.3,0.6-0.4c0.3,0,0.5,0,0.8,0c1.1,0.7,1.3,1.3,0.6,2.3c-0.9,0.6-1.2,0.6-2.1,0
		C15.6,27.7,15.7,27.1,16.1,26.5z"/>
	<path class="st12" d="M16.7,17.5c0,0,0.1,0.1,0.1,0.1c0,0,0,0-0.1,0c0,0,0,0-0.1,0C16.7,17.6,16.7,17.5,16.7,17.5z"/>
	<path class="st12" d="M26.8,11.2c0.7-0.4,1.4-0.7,2.2-0.9c1-0.4,1.9-0.2,2.8,0.2c2.5,1.1,5.1,2.1,7.6,3.2c-0.7,0.5-0.7,0.5,0,1.1
		c0.4,0.3,0.6,0.6,0.8,1c0.4,0.9,0.5,0.9,1,0.1c0.3-0.5,0.8-0.8,1.3-0.9c0.8,0.3,1.5,0.6,2.3,1c0.2,0.1,0.5,0.2,0.5,0.5
		c0,0.3-0.3,0.4-0.5,0.5c-0.5,0.2-0.9,0.4-1.4,0.6c-1,0.4-2.1,0.8-3.1,1.3c-0.4,0-0.8,0.3-1.2,0.4c-0.8,0.3-1.6,0.8-2.5,1
		c-0.7-0.3-1.5-0.3-2.2-0.4c-2.4-0.5-4.8-1.1-6.8-2.6c-0.6-0.4-1.1-0.8-1.5-1.4c-0.9-1.3-0.8-2.7,0.3-3.9
		C26.5,11.7,26.7,11.5,26.8,11.2z"/>
	<path class="st11" d="M40.3,18.8c1-0.6,2-0.9,3.1-1.3c2.2,5.2,0.8,12-3.3,15.6c-0.8-0.9-1.8-1.6-2.8-2.1c0.5-0.3,0.7-0.7,0.8-1.2
		c0.2-1.1,0.4-2.2,0.7-3.3C39.2,24,39.8,21.4,40.3,18.8z"/>
	<path class="st13" d="M42.5,14.9c-0.6,0.1-1,0.4-1.3,0.9c-0.6,0.8-0.6,0.8-1-0.1c-0.2-0.4-0.4-0.7-0.8-1c-0.8-0.5-0.8-0.6,0-1.1
		c0.5-0.1,0.8-0.4,1.1-0.8c0.1-0.1,0.2-0.2,0.2-0.3c0.2-0.3,0.4-0.3,0.6,0.1c0.3,0.7,0.7,1.2,1.3,1.7C43.1,14.5,42.7,14.7,42.5,14.9
		z"/>
	<path class="st14" d="M40.3,18.8c-0.5,2.6-1,5.1-1.6,7.7c-0.2,1.1-0.5,2.2-0.7,3.3c-0.1,0.5-0.3,1-0.8,1.2
		c-2.2,0.8-4.5,1.2-6.8,1.3c-0.6,0-1.3,0-1.9-0.1c0-0.3-0.1-0.6-0.2-0.9c-0.6-1.7-0.9-3.4-1.2-5.2c-0.3-1.5-0.3-3-0.4-4.5
		c0.6,0.2,1.1,0.4,1.7,0.7c1.2,0.5,2.3,0.5,3.5-0.1c1.4-0.6,2.8-1.2,4.2-1.7c0.2-0.1,0.4-0.1,0.5-0.3c0.9-0.2,1.7-0.7,2.5-1
		C39.5,19.1,39.9,18.9,40.3,18.8z"/>
	<path class="st15" d="M26.7,21.6c0.2,1.5,0.2,3,0.4,4.5c0.3,1.8,0.7,3.5,1.2,5.2c0.1,0.3,0.2,0.6,0.2,0.9c-1.7,0-3.4-0.5-5-1
		c-0.2-0.1-0.4-0.1-0.6-0.2c-0.5-0.3-0.7-0.8-0.9-1.3c-0.7-3.6-1.5-7.2-2.3-10.8c0-0.1,0-0.1,0-0.2C22.1,19.7,24.4,20.6,26.7,21.6z"
		/>
	<path class="st15" d="M16.7,17.6C16.7,17.6,16.8,17.6,16.7,17.6c0.3,0,0.6,0.1,0.8,0.3c0,2.8,0,5.5,0,8.3c-0.3,0-0.5,0-0.8,0
		C16.7,23.2,16.7,20.4,16.7,17.6z"/>
	<path class="st6" d="M19.1,32.3c-0.1,0-0.1-0.1-0.1-0.2C19,32.2,19,32.3,19.1,32.3z"/>
</g>
</svg>
